<svg version="1.0" xmlns="http://www.w3.org/2000/svg" width="64" height="64" viewBox="5.5 -3.5 64 64" xml:space="preserve"><circle fill="#FFF" cx="36.924" cy="28.403" r="28.895"/><path d="M60.205 5.779C54.012-.407 46.428-3.5 37.459-3.5c-8.865 0-16.367 3.091-22.508 9.279C8.649 12.18 5.5 19.752 5.5 28.5c0 8.745 3.149 16.266 9.451 22.558 6.301 6.296 13.802 9.442 22.508 9.442 8.809 0 16.446-3.175 22.907-9.521C66.455 44.952 69.5 37.459 69.5 28.5c-.001-8.961-3.099-16.536-9.295-22.721zM56.199 46.82c-5.286 5.226-11.508 7.837-18.66 7.837-7.156 0-13.325-2.587-18.504-7.761-5.179-5.174-7.77-11.306-7.77-18.397 0-3 .474-5.837 1.41-8.51l8.479 3.754h-.611v3.803h3.001c0 .538-.054 1.073-.054 1.608v.912h-2.947v3.803h3.481c.483 2.84 1.555 5.144 3 6.965 3 3.965 7.822 6.106 13.071 6.106 3.43 0 6.533-1.017 8.357-2.036l-1.287-5.944c-1.125.589-3.641 1.391-6.104 1.391-2.68 0-5.196-.802-6.911-2.731-.803-.91-1.392-2.144-1.767-3.75h11.646l16.549 7.325c-1.145 2.03-2.6 3.907-4.379 5.625zM35.387 30.065l-.07-.054.12.054h-.05zm9.964-2.52h.479v-3.803h-9.07l-3.685-1.63c.317-.713.693-1.351 1.131-1.85 1.661-2.039 4.017-2.895 6.589-2.895 2.357 0 4.553.696 5.945 1.285l1.5-6.108c-1.93-.855-4.768-1.605-8.035-1.605-5.035 0-9.321 2.035-12.375 5.463-.678.783-1.266 1.662-1.799 2.591l-10.523-4.657a29.494 29.494 0 0 1 3.608-4.398c5.021-5.12 11.16-7.681 18.424-7.681 7.26 0 13.429 2.56 18.502 7.681 5.124 5.066 7.687 11.252 7.687 18.562 0 2.407-.272 4.678-.812 6.82l-17.566-7.775z"/></svg>
