<svg xmlns="http://www.w3.org/2000/svg" width="64" height="64" xml:space="preserve"><circle fill="#FFF" cx="32.485" cy="31.496" r="28.44"/><path d="M54.708 9.279C48.512 3.093 40.932 0 31.958 0 23.095 0 15.592 3.093 9.453 9.279 3.15 15.68 0 23.253 0 32c0 8.746 3.15 16.268 9.453 22.561C15.752 60.854 23.255 64 31.958 64c8.812 0 16.449-3.173 22.909-9.52C60.956 48.454 64 40.959 64 32c0-8.96-3.098-16.534-9.292-22.721zM50.701 50.32c-5.287 5.227-11.508 7.839-18.661 7.839-7.156 0-13.324-2.587-18.503-7.761C8.357 45.227 5.768 39.093 5.768 32c0-2.728.391-5.318 1.164-7.777l16.383 7.295H19.71v4.981h7.496l.733 1.521v2.414H19.71v4.98h8.229v7.234h7.963v-7.234h8.281V40.81l10.448 4.653a24.854 24.854 0 0 1-3.93 4.857zm-7.364-9.886h-7.433V38.02l.375-.728 7.058 3.142zm.847-6.625v-2.291h-4.979l8.125-14.969h-8.492l-5.595 12.388-2.969-1.322-5.113-11.066H16.67l3.524 6.578-10.566-4.705a29.312 29.312 0 0 1 3.988-4.983c5.02-5.12 11.16-7.68 18.424-7.68 7.26 0 13.429 2.56 18.502 7.68C55.668 18.506 58.23 24.692 58.23 32c0 2.707-.342 5.241-1.021 7.607l-13.025-5.798z"/></svg>
