<svg xmlns="http://www.w3.org/2000/svg" width="384" height="384.017" xml:space="preserve"><path d="M192 .017c-106.036 0-192 85.964-192 192 0 106.024 85.964 192 192 192s192-85.976 192-192c0-106.037-85.964-192-192-192zm0 347.998c-86.023 0-156.004-69.987-156.004-155.998 0-18.007 3.103-35.299 8.746-51.394l61.013 27.169a129.034 129.034 0 0 0-2.534 25.479c0 76.65 57.212 98.247 93.208 98.247 21.227 0 39.598-6.852 53.979-16.904a94.621 94.621 0 0 0 7.484-5.936l-27.99-34.009a32.216 32.216 0 0 1-2.557 2.628c-10.887 10.323-22.853 10.323-25.527 10.323-29.286 0-41.545-30.899-41.709-55.651l168.157 74.867c.199.035.363.035.527.07-26.534 48.309-77.903 81.109-136.793 81.109zm150.332-116.137-173.436-77.412c6.258-11.332 16.218-19.849 31.122-19.849 8.64 0 15.491 2.862 20.887 6.476 2.24 1.619 4.188 3.237 5.83 4.868l31.263-32.178c-20.998-18.054-44.871-21.28-60.484-21.28-36.688 0-62.649 15.86-77.952 39.944L61.564 106.58C89.478 64.114 137.51 36.007 192 36.007c86.022 0 156.01 69.976 156.01 156.01a155.58 155.58 0 0 1-5.303 40.261c-.141-.141-.234-.259-.375-.4z"/></svg>
