<svg version="1.0" xmlns="http://www.w3.org/2000/svg" width="64" height="64" viewBox="5.5 -3.5 64 64" xml:space="preserve"><circle fill="#FFF" cx="37.946" cy="28.887" r="29.704"/><path d="M37.443-3.5c8.951 0 16.531 3.105 22.742 9.315C66.393 11.987 69.5 19.548 69.5 28.5c0 8.954-3.049 16.457-9.145 22.514-6.437 6.324-14.076 9.486-22.912 9.486-8.649 0-16.153-3.143-22.514-9.429C8.644 44.786 5.5 37.264 5.5 28.501c0-8.723 3.144-16.285 9.429-22.685C21.138-.395 28.643-3.5 37.443-3.5zm.114 5.772c-7.276 0-13.428 2.572-18.457 7.715-5.22 5.296-7.829 11.467-7.829 18.513 0 7.125 2.59 13.257 7.77 18.4 5.181 5.182 11.352 7.771 18.514 7.771 7.123 0 13.334-2.609 18.629-7.828 5.029-4.876 7.543-10.99 7.543-18.343 0-7.313-2.553-13.485-7.656-18.513-5.067-5.145-11.239-7.715-18.514-7.715zm13.029 17.085c.494 0 .914.171 1.256.513.344.343.516.763.516 1.258V44.67c0 .495-.172.914-.516 1.256a1.71 1.71 0 0 1-1.256.516H33.157c-.496 0-.914-.171-1.258-.516a1.703 1.703 0 0 1-.514-1.256v-6.973h-6.971c-.497 0-.915-.17-1.258-.513a1.71 1.71 0 0 1-.514-1.258v-23.54c0-.458.151-.848.458-1.171a1.97 1.97 0 0 1 1.142-.6h17.599c.494 0 .914.171 1.258.514.342.342.514.763.514 1.258v6.972h6.973zM26.128 34.214h5.257V21.128c0-.457.151-.847.458-1.171a1.951 1.951 0 0 1 1.085-.6h7.2v-5.2h-14v20.057zm22.743-11.372h-14V42.9h14V22.842z"/></svg>
