<svg version="1.0" xmlns="http://www.w3.org/2000/svg" width="64" height="64" viewBox="5.5 -3.5 64 64" xml:space="preserve"><circle fill="#FFF" cx="37.834" cy="28" r="28.834"/><path d="M37.443-3.5c8.951 0 16.531 3.105 22.742 9.315C66.393 11.987 69.5 19.548 69.5 28.5c0 8.954-3.049 16.457-9.145 22.514-6.437 6.324-14.076 9.486-22.912 9.486-8.649 0-16.153-3.143-22.514-9.429C8.644 44.786 5.5 37.264 5.5 28.501c0-8.723 3.144-16.285 9.429-22.685C21.138-.395 28.643-3.5 37.443-3.5zm.114 5.772c-7.276 0-13.428 2.572-18.457 7.715-5.22 5.296-7.829 11.467-7.829 18.513 0 7.125 2.59 13.257 7.77 18.4 5.181 5.182 11.352 7.771 18.514 7.771 7.123 0 13.334-2.609 18.629-7.828 5.029-4.876 7.543-10.99 7.543-18.343 0-7.313-2.553-13.485-7.656-18.513-5.067-5.145-11.239-7.715-18.514-7.715zm20.857 26.8.629.286v9.028l-.572.284-7.771 3.315-.343.115-.4-.114-16.743-6.914-.572-.229-8.285 3.429-8.171-3.544V26.5l7.657-3.201-.057-.057v-9.029l8.686-3.828 19.6 8.114v7.943l6.342 2.63zm-9.086 10.512v-5.655h-.057V33.7l-14.686-6v5.83l14.686 6.058v-.058l.057.054zm.971-7.427 5.145-2.114-4.744-2-5.029 2.114 4.628 2zm6.744 4.915V31.53l-5.715 2.4v5.6l5.715-2.458z"/></svg>
