<?xml version="1.0" encoding="UTF-8"?><svg id="Layer_1" xmlns="http://www.w3.org/2000/svg" viewBox="0 0 514.87 197.99"><defs><style>.cls-1{fill:#f16009;}.cls-2{fill:#abdd22;}.cls-3{fill:#199b9e;}.cls-4{fill:#44b0e4;}.cls-5{stroke:#000;stroke-miterlimit:10;stroke-width:.9px;}</style></defs><rect class="cls-2" x="105.03" width="65.87" height="65.86" rx="11.34" ry="11.34"/><rect class="cls-1" y="53.07" width="47.51" height="47.51" rx="8.42" ry="8.42"/><rect class="cls-4" x="83.03" y="83.08" width="38.62" height="38.62" rx="8.42" ry="8.42"/><rect class="cls-3" x="40.51" y="139.57" width="58.43" height="58.42" rx="8.42" ry="8.42"/><path class="cls-5" d="m283.04,147.71l6.71,3.58c-2.16,4.36-4.7,7.87-7.62,10.52-2.92,2.65-6.2,4.67-9.84,6.06-3.64,1.38-7.76,2.08-12.34,2.08-10.16,0-18.11-3.33-23.83-9.98-5.73-6.65-8.59-14.17-8.59-22.55,0-7.93,2.43-14.98,7.28-21.16,6.14-7.89,14.39-11.83,24.74-11.83s19.06,4.04,25.42,12.12c4.51,5.69,6.79,12.78,6.83,21.27h-56.03c.15,7.28,2.46,13.24,6.94,17.89,4.47,4.65,9.99,6.97,16.55,6.97,3.19,0,6.28-.56,9.27-1.68,3-1.12,5.55-2.59,7.65-4.41,2.1-1.82,4.39-4.78,6.85-8.87Zm0-16.78c-1.06-4.29-2.62-7.71-4.66-10.27-2.05-2.56-4.76-4.63-8.13-6.2-3.38-1.57-6.92-2.36-10.64-2.36-6.11,0-11.36,1.97-15.76,5.92-3.19,2.88-5.59,7.19-7.22,12.91h46.41Z"/><path class="cls-5" d="m350.25,107.58c4.46-1.95,9.22-2.93,14.31-2.93,8.87,0,16.46,3.19,22.75,9.56,6.29,6.37,9.44,14.05,9.44,23.04s-3.13,16.91-9.39,23.32c-6.26,6.41-13.78,9.61-22.58,9.61-4.97,0-9.54-1.01-13.71-3.04-4.17-2.03-7.94-5.11-11.32-9.24v34.81h-7.96c0,.08,0-19.62,0-59.1.68-5.5,2.73-11.09,6.14-16.78,3.75-4.21,7.86-7.29,12.31-9.24Zm-3.9,12.03c-4.78,4.85-7.17,10.9-7.17,18.14,0,4.7,1.06,8.96,3.19,12.77,2.12,3.81,5.16,6.83,9.1,9.04,3.94,2.22,8.11,3.33,12.51,3.33s8.39-1.11,12.2-3.33c3.81-2.22,6.84-5.35,9.1-9.39,2.26-4.04,3.38-8.26,3.38-12.66s-1.12-8.68-3.36-12.63c-2.24-3.94-5.24-7.02-9.02-9.24-3.77-2.22-7.92-3.33-12.43-3.33-6.9,0-12.74,2.43-17.52,7.28Z"/><path class="cls-5" d="m405.39,106.01h8.08v29.12c0,7.13.38,12.02,1.14,14.68,1.14,3.83,3.32,6.85,6.54,9.07,3.22,2.22,7.09,3.33,11.6,3.33s8.27-1.08,11.38-3.24c3.11-2.16,5.25-5.01,6.43-8.53.83-2.39,1.25-7.49,1.25-15.3v-29.12h8.19v30.66c0,8.61-1.02,15.08-3.04,19.42-2.03,4.34-5.05,7.74-9.07,10.18-4.02,2.45-9.06,3.67-15.13,3.67s-11.19-1.22-15.24-3.67c-4.06-2.45-7.09-5.88-9.1-10.3-2.01-4.42-3.01-11.06-3.01-19.94v-30.03Z"/><path class="cls-5" d="m514.17,112.84l-6.17,5.35c-5.21-4.17-10.26-6.26-15.15-6.26-3.15,0-5.85.85-8.09,2.56-2.24,1.71-3.36,3.74-3.36,6.09,0,1.97.94,3.87,2.81,5.69,1.83,1.93,5.69,4.15,11.59,6.66,7.22,3.07,12.11,6.05,14.67,8.93,2.51,2.92,3.77,6.2,3.77,9.84,0,5.08-2.16,9.39-6.48,12.94-4.32,3.55-9.73,5.32-16.22,5.32-4.34,0-8.49-.77-12.44-2.3-3.95-1.54-7.21-3.69-9.77-6.46l6.1-5.74c4.94,4.63,10.17,6.94,15.7,6.94,3.84,0,7.12-1.03,9.84-3.1,2.72-2.07,4.08-4.48,4.08-7.25,0-2.31-.89-4.36-2.67-6.14-1.78-1.78-5.83-4.02-12.14-6.71-6.81-2.84-11.43-5.71-13.85-8.59-2.47-2.81-3.7-6.03-3.7-9.67,0-4.74,1.95-8.67,5.86-11.8,3.91-3.13,8.81-4.69,14.71-4.69,6.9,0,13.87,2.81,20.91,8.42Z"/><path class="cls-5" d="m327.65,105.36c-4.7-.2-8.77.73-12.22,2.8-3.87,2.12-7,4.99-9.39,8.59-2.88,3.94-4.66,10.16-5.35,18.66v34.13h7.96v-26.45c-.3-8.49.3-14.63,1.82-18.4,1.52-3.77,3.98-6.61,7.39-8.5,3.13-1.74,6.39-2.67,9.77-2.81v-8.01Z"/><path d="m225.34,106.09l-7.26,5.42c-3.94-5.17-8.69-9.08-14.25-11.72-5.56-2.65-11.66-3.97-18.31-3.97-7.3,0-14.05,1.74-20.25,5.23-6.2,3.49-11.01,8.18-14.43,14.06-3.43,5.89-5.14,12.53-5.14,19.91,0,11.12,3.82,20.07,11.45,26.86,7.63,6.79,17.25,10.19,28.86,10.19,12.8,0,23.49-5.01,32.06-15.02l7.26,5.48c-4.55,5.78-10.24,10.26-17.05,13.42-6.81,3.16-14.4,4.74-22.77,4.74-16,0-28.62-5.31-37.85-15.94-7.71-8.99-11.57-19.16-11.57-30.53,0-13.33,4.69-24.58,14.06-33.73,9.37-9.15,21.1-13.72,35.17-13.72,8.53,0,16.24,1.69,23.11,5.08,6.87,3.39,12.5,8.14,16.89,14.25Z"/></svg>