<?xml version="1.0" encoding="UTF-8"?><svg id="Layer_1" xmlns="http://www.w3.org/2000/svg" viewBox="0 0 515.73 197.99"><defs><style>.cls-1{fill:#fff;}.cls-2{fill:#f16009;}.cls-3{fill:#abdd22;}.cls-4{fill:#199b9e;}.cls-5{fill:#44b0e4;}</style></defs><rect class="cls-3" x="105.03" width="65.87" height="65.86" rx="11.34" ry="11.34"/><rect class="cls-2" y="53.07" width="47.51" height="47.51" rx="8.42" ry="8.42"/><rect class="cls-5" x="83.03" y="83.08" width="38.62" height="38.62" rx="8.42" ry="8.42"/><rect class="cls-4" x="40.51" y="139.57" width="58.43" height="58.42" rx="8.42" ry="8.42"/><path d="m259.94,170.45c-10.27,0-18.41-3.42-24.21-10.16-5.78-6.72-8.71-14.41-8.71-22.88,0-8,2.49-15.23,7.39-21.47,6.21-7.98,14.67-12.02,25.14-12.02s19.38,4.14,25.82,12.31c4.56,5.75,6.9,13.01,6.93,21.58v.5s-56.01,0-56.01,0c.24,6.89,2.53,12.62,6.79,17.04,4.36,4.52,9.8,6.81,16.19,6.81,3.11,0,6.17-.55,9.1-1.65,2.93-1.09,5.45-2.55,7.5-4.32,2.05-1.78,4.33-4.72,6.75-8.75l.25-.41,7.56,4.04-.21.43c-2.18,4.4-4.79,7.99-7.74,10.67-2.95,2.68-6.32,4.75-10,6.16-3.68,1.4-7.89,2.11-12.52,2.11Zm22.45-40.02c-1.03-3.91-2.52-7.09-4.41-9.46-1.99-2.49-4.67-4.53-7.96-6.06-3.29-1.54-6.8-2.31-10.43-2.31-5.95,0-11.14,1.95-15.42,5.79-2.98,2.7-5.3,6.75-6.89,12.04h45.1Z"/><path class="cls-1" d="m259.55,104.42c10.58,0,19.06,4.04,25.42,12.12,4.51,5.69,6.79,12.78,6.83,21.27h-56.03c.15,7.28,2.46,13.24,6.94,17.89,4.47,4.65,9.99,6.97,16.55,6.97,3.19,0,6.28-.56,9.27-1.68,3-1.12,5.55-2.59,7.65-4.41,2.1-1.82,4.39-4.78,6.85-8.87l6.71,3.58c-2.16,4.36-4.7,7.87-7.62,10.52-2.92,2.65-6.2,4.67-9.84,6.06-3.64,1.38-7.76,2.08-12.34,2.08-10.16,0-18.11-3.33-23.83-9.98-5.73-6.65-8.59-14.17-8.59-22.55,0-7.93,2.43-14.98,7.28-21.16,6.14-7.89,14.39-11.83,24.74-11.83m-22.92,26.51h46.41c-1.06-4.29-2.62-7.71-4.66-10.27-2.05-2.56-4.76-4.63-8.13-6.2-3.38-1.57-6.92-2.36-10.64-2.36-6.11,0-11.36,1.97-15.76,5.92-3.19,2.88-5.59,7.19-7.22,12.91m22.92-27.51c-10.63,0-19.22,4.11-25.53,12.22-4.97,6.33-7.49,13.66-7.49,21.77,0,8.59,2.97,16.4,8.83,23.2,5.9,6.85,14.17,10.33,24.59,10.33,4.69,0,8.96-.72,12.7-2.14,3.74-1.42,7.16-3.52,10.16-6.25,3-2.72,5.64-6.36,7.85-10.82l.43-.87-.86-.46-6.71-3.58-.84-.45-.49.81c-2.4,3.99-4.64,6.89-6.65,8.63-2,1.73-4.48,3.16-7.35,4.23-2.87,1.07-5.87,1.61-8.92,1.61-6.25,0-11.57-2.24-15.83-6.66-4.06-4.22-6.29-9.66-6.62-16.2h55.99v-1c-.04-8.68-2.41-16.05-7.05-21.89-6.54-8.29-15.36-12.49-26.21-12.49h0Zm-21.58,26.51c1.56-4.89,3.76-8.64,6.55-11.17,4.19-3.75,9.26-5.66,15.08-5.66,3.55,0,6.99.76,10.21,2.27,3.22,1.5,5.83,3.49,7.78,5.92,1.75,2.19,3.14,5.09,4.14,8.64h-43.77Z"/><path d="m331.3,193.2v-59.6c.69-5.61,2.78-11.32,6.21-17.04,3.84-4.32,8.04-7.47,12.54-9.44,4.5-1.97,9.38-2.97,14.51-2.97,8.97,0,16.74,3.26,23.11,9.7,6.36,6.44,9.59,14.31,9.59,23.39s-3.21,17.2-9.53,23.67c-6.33,6.48-14.04,9.76-22.94,9.76-5.02,0-9.71-1.04-13.93-3.09-3.85-1.87-7.42-4.67-10.6-8.32v33.94h-8.96Zm32.58-80.37c-6.73,0-12.5,2.4-17.16,7.13-4.66,4.74-7.02,10.72-7.02,17.79,0,4.6,1.05,8.81,3.12,12.53,2.07,3.71,5.07,6.69,8.91,8.85,3.85,2.17,7.97,3.26,12.27,3.26s8.24-1.1,11.95-3.26c3.71-2.16,6.71-5.26,8.92-9.2,2.2-3.95,3.32-8.12,3.32-12.41s-1.11-8.53-3.29-12.38c-2.18-3.85-5.16-6.9-8.83-9.06s-7.77-3.26-12.17-3.26Z"/><path class="cls-1" d="m364.56,104.65c8.87,0,16.46,3.19,22.75,9.56,6.29,6.37,9.44,14.05,9.44,23.04s-3.13,16.91-9.39,23.32c-6.26,6.41-13.78,9.61-22.58,9.61-4.97,0-9.54-1.01-13.71-3.04-4.17-2.03-7.94-5.11-11.32-9.24v34.81h-7.96v-59.1c.68-5.5,2.73-11.09,6.14-16.78,3.75-4.21,7.86-7.29,12.31-9.24,4.46-1.95,9.22-2.93,14.31-2.93m-.57,58.25c4.32,0,8.39-1.11,12.2-3.33,3.81-2.22,6.84-5.35,9.1-9.39,2.26-4.04,3.38-8.26,3.38-12.66s-1.12-8.68-3.36-12.63c-2.24-3.94-5.24-7.02-9.02-9.24s-7.92-3.33-12.43-3.33c-6.9,0-12.74,2.43-17.52,7.28-4.78,4.85-7.17,10.9-7.17,18.14,0,4.7,1.06,8.96,3.19,12.77,2.12,3.81,5.16,6.83,9.1,9.04,3.94,2.22,8.11,3.33,12.51,3.33m-32.19,29.81h0s0,0,0,0m32.76-89.05c-5.2,0-10.14,1.01-14.71,3.01-4.57,2-8.83,5.2-12.66,9.49l-.06.07-.05.08c-3.47,5.78-5.58,11.56-6.28,17.17v.06s0,.06,0,.06v60.1h9.96v-33.14c3,3.23,6.32,5.74,9.88,7.47,4.29,2.09,9.05,3.14,14.14,3.14,9.04,0,16.88-3.34,23.3-9.91,6.42-6.57,9.67-14.65,9.67-24.02s-3.27-17.21-9.73-23.74c-6.46-6.54-14.35-9.85-23.46-9.85h0Zm-.57,58.25c-4.21,0-8.25-1.08-12.02-3.2-3.76-2.12-6.7-5.03-8.72-8.66-2.03-3.64-3.06-7.77-3.06-12.28,0-6.94,2.31-12.8,6.88-17.44,4.56-4.63,10.22-6.98,16.81-6.98,4.31,0,8.32,1.07,11.92,3.19,3.6,2.12,6.51,5.1,8.65,8.87,2.14,3.77,3.23,7.86,3.23,12.13s-1.1,8.3-3.26,12.17c-2.16,3.86-5.1,6.89-8.73,9.01-3.64,2.12-7.57,3.19-11.7,3.19h0Z"/><path d="m432.75,170.45c-6.17,0-11.38-1.26-15.5-3.74-4.13-2.49-7.26-6.03-9.3-10.52-2.03-4.46-3.06-11.24-3.06-20.14v-30.53h9.08v29.62c0,7.05.38,11.94,1.12,14.54,1.1,3.7,3.23,6.66,6.34,8.8,3.12,2.15,6.93,3.24,11.32,3.24s8.08-1.06,11.09-3.15c3-2.09,5.1-4.88,6.24-8.28.81-2.33,1.23-7.42,1.23-15.14v-29.62h9.19v31.16c0,8.64-1.04,15.25-3.09,19.64-2.06,4.41-5.18,7.91-9.27,10.4-4.08,2.48-9.26,3.74-15.39,3.74Z"/><path class="cls-1" d="m459.99,106.01v30.66c0,8.61-1.02,15.08-3.04,19.42-2.03,4.34-5.05,7.74-9.07,10.18-4.02,2.45-9.06,3.67-15.13,3.67s-11.19-1.22-15.24-3.67c-4.06-2.45-7.09-5.88-9.1-10.3-2.01-4.42-3.01-11.06-3.01-19.94v-30.03h8.08v29.12c0,7.13.38,12.02,1.14,14.68,1.14,3.83,3.32,6.85,6.54,9.07,3.22,2.22,7.09,3.33,11.6,3.33s8.27-1.08,11.38-3.24c3.11-2.16,5.25-5.01,6.43-8.53.83-2.39,1.25-7.49,1.25-15.3v-29.12h8.19m1-1h-10.19v30.12c0,7.66-.4,12.7-1.2,14.97-1.11,3.31-3.14,6.02-6.05,8.04-2.92,2.03-6.56,3.06-10.81,3.06s-8-1.06-11.04-3.15c-3.01-2.07-5.08-4.95-6.15-8.53-.73-2.54-1.1-7.39-1.1-14.39v-30.12h-10.08v31.03c0,8.98,1.04,15.82,3.1,20.35,2.09,4.58,5.28,8.2,9.5,10.74,4.2,2.53,9.5,3.81,15.76,3.81s11.49-1.28,15.65-3.81c4.17-2.54,7.35-6.11,9.46-10.61,2.08-4.46,3.14-11.14,3.14-19.85v-31.66h0Z"/><path d="m491.54,170.45c-4.39,0-8.63-.79-12.62-2.34-4.01-1.55-7.36-3.77-9.96-6.58l-.34-.36,6.81-6.41.34.32c4.82,4.52,9.99,6.81,15.36,6.81,3.71,0,6.92-1.01,9.54-3,2.61-1.99,3.88-4.23,3.88-6.85,0-2.19-.83-4.09-2.53-5.79-1.73-1.73-5.76-3.95-11.98-6.61-6.85-2.86-11.57-5.8-14.04-8.73-2.53-2.88-3.82-6.24-3.82-9.99,0-4.88,2.04-8.98,6.05-12.19,3.98-3.19,9.04-4.8,15.02-4.8,6.99,0,14.13,2.87,21.22,8.53l.47.38-6.94,6.01-.33-.26c-5.1-4.08-10.09-6.15-14.84-6.15-3.03,0-5.65.83-7.79,2.46-2.13,1.62-3.16,3.48-3.16,5.69,0,1.82.89,3.62,2.66,5.33,1.79,1.89,5.63,4.09,11.44,6.55,7.25,3.08,12.25,6.13,14.85,9.06,2.59,3.01,3.9,6.43,3.9,10.17,0,5.21-2.24,9.7-6.66,13.33-4.39,3.6-9.95,5.43-16.53,5.43Z"/><path class="cls-1" d="m493.26,104.42c6.9,0,13.87,2.81,20.91,8.42l-6.17,5.35c-5.21-4.17-10.26-6.26-15.15-6.26-3.15,0-5.85.85-8.09,2.56-2.24,1.71-3.36,3.74-3.36,6.09,0,1.97.94,3.87,2.81,5.69,1.83,1.93,5.69,4.15,11.59,6.66,7.22,3.07,12.11,6.05,14.67,8.93,2.51,2.92,3.77,6.2,3.77,9.84,0,5.08-2.16,9.39-6.48,12.94-4.32,3.55-9.73,5.32-16.22,5.32-4.34,0-8.49-.77-12.44-2.3-3.95-1.54-7.21-3.69-9.77-6.46l6.1-5.74c4.94,4.63,10.17,6.94,15.7,6.94,3.84,0,7.12-1.03,9.84-3.1,2.72-2.07,4.08-4.48,4.08-7.25,0-2.31-.89-4.36-2.67-6.14-1.78-1.78-5.83-4.02-12.14-6.71-6.81-2.84-11.43-5.71-13.85-8.59-2.47-2.81-3.7-6.03-3.7-9.67,0-4.74,1.95-8.67,5.86-11.8,3.91-3.13,8.81-4.69,14.71-4.69m0-1c-6.1,0-11.26,1.65-15.33,4.91-4.14,3.31-6.24,7.55-6.24,12.58,0,3.87,1.33,7.35,3.95,10.33,2.54,3.02,7.19,5.92,14.22,8.85,6.15,2.63,10.13,4.81,11.82,6.5,1.6,1.6,2.38,3.38,2.38,5.44,0,2.46-1.21,4.57-3.68,6.46-2.53,1.92-5.64,2.9-9.23,2.9-5.24,0-10.3-2.24-15.02-6.67l-.69-.64-.68.64-6.1,5.74-.72.68.67.73c2.65,2.87,6.06,5.13,10.14,6.71,4.05,1.57,8.36,2.37,12.81,2.37,6.7,0,12.37-1.87,16.85-5.55,4.54-3.73,6.85-8.34,6.85-13.71,0-3.87-1.35-7.4-4.01-10.49-2.7-3.03-7.61-6.04-15.04-9.2-5.74-2.44-9.53-4.6-11.25-6.42-1.72-1.67-2.54-3.3-2.54-5,0-2.04.97-3.77,2.97-5.29,2.05-1.56,4.57-2.35,7.49-2.35,4.64,0,9.52,2.03,14.53,6.04l.65.52.63-.55,6.17-5.35.91-.79-.94-.75c-7.19-5.73-14.44-8.64-21.54-8.64h0Z"/><path d="m300.2,170.04v-34.63c.69-8.59,2.52-14.95,5.44-18.95,2.41-3.63,5.63-6.58,9.55-8.73,3.17-1.92,6.95-2.89,11.21-2.89.42,0,.84,0,1.27.03l.48.02v8.97l-.48.02c-3.31.14-6.52,1.07-9.55,2.75-3.29,1.83-5.71,4.61-7.17,8.25-1.48,3.69-2.08,9.81-1.79,18.2v26.97h-8.96Z"/><path class="cls-1" d="m326.4,105.33c.41,0,.83,0,1.25.03v8.01c-3.38.14-6.64,1.08-9.77,2.81-3.41,1.9-5.88,4.73-7.39,8.5-1.52,3.77-2.12,9.91-1.82,18.4v26.45h-7.96v-34.13c.68-8.49,2.46-14.71,5.35-18.66,2.39-3.6,5.52-6.46,9.39-8.59,3.13-1.89,6.79-2.83,10.97-2.83m0-1c-4.35,0-8.21,1-11.48,2.98-3.96,2.17-7.23,5.17-9.7,8.89-2.95,4.04-4.82,10.49-5.51,19.13v.04s0,.04,0,.04v35.13h9.96v-27.45c-.3-8.35.29-14.4,1.75-18.03,1.42-3.54,3.76-6.23,6.95-8,2.96-1.65,6.1-2.55,9.33-2.69l.96-.04v-9.93l-.96-.04c-.44-.02-.87-.03-1.29-.03h0Z"/><path d="m185.52,181.18c-16.08,0-28.94-5.42-38.23-16.11-7.76-9.04-11.69-19.42-11.69-30.85,0-13.41,4.78-24.88,14.21-34.08,9.43-9.2,21.38-13.87,35.52-13.87,8.57,0,16.42,1.73,23.33,5.13,6.91,3.41,12.66,8.25,17.08,14.4l.29.4-8.05,6-.3-.39c-3.87-5.08-8.6-8.98-14.06-11.58-5.47-2.6-11.55-3.92-18.09-3.92-7.18,0-13.91,1.74-20,5.17-6.09,3.43-10.88,8.1-14.25,13.88-3.36,5.78-5.07,12.4-5.07,19.66,0,10.92,3.79,19.83,11.28,26.49,7.5,6.67,17.1,10.06,28.53,10.06,12.59,0,23.25-4.99,31.68-14.84l.31-.36,8.04,6.07-.32.4c-4.58,5.82-10.38,10.38-17.23,13.56-6.84,3.18-14.58,4.79-22.98,4.79Z"/><path class="cls-1" d="m185.33,86.77c8.53,0,16.24,1.69,23.11,5.08,6.87,3.39,12.5,8.14,16.89,14.25l-7.26,5.42c-3.94-5.17-8.69-9.08-14.25-11.72-5.56-2.65-11.66-3.97-18.31-3.97-7.3,0-14.05,1.74-20.25,5.23-6.2,3.49-11.01,8.18-14.43,14.06-3.43,5.89-5.14,12.53-5.14,19.91,0,11.12,3.82,20.07,11.45,26.86,7.63,6.79,17.25,10.19,28.86,10.19,12.8,0,23.49-5.01,32.06-15.02l7.26,5.48c-4.55,5.78-10.24,10.26-17.05,13.42-6.81,3.16-14.4,4.74-22.77,4.74-16,0-28.62-5.31-37.85-15.94-7.71-8.99-11.57-19.16-11.57-30.53,0-13.33,4.69-24.58,14.06-33.73,9.37-9.15,21.1-13.72,35.17-13.72m0-1c-14.28,0-26.35,4.71-35.87,14.01-9.53,9.3-14.36,20.89-14.36,34.44,0,11.56,3.97,22.05,11.81,31.18,9.39,10.81,22.38,16.29,38.61,16.29,8.48,0,16.28-1.63,23.19-4.83,6.92-3.21,12.78-7.82,17.41-13.7l.63-.8-.82-.61-7.26-5.48-.75-.57-.61.71c-8.34,9.73-18.87,14.67-31.3,14.67-11.31,0-20.79-3.34-28.2-9.93-7.37-6.56-11.11-15.35-11.11-26.12,0-7.17,1.68-13.7,5-19.41,3.32-5.7,8.05-10.31,14.06-13.69,6.02-3.39,12.66-5.1,19.76-5.1,6.47,0,12.48,1.3,17.88,3.87,5.39,2.57,10.06,6.41,13.88,11.43l.6.79.79-.59,7.26-5.42.79-.59-.57-.8c-4.47-6.22-10.28-11.12-17.26-14.56-6.98-3.44-14.9-5.18-23.55-5.18h0Z"/></svg>