<?xml version="1.0" encoding="UTF-8"?><svg id="Edlib_white_stroke" xmlns="http://www.w3.org/2000/svg" viewBox="0 0 532 212.05"><defs><style>.cls-1{fill:none;stroke:#fff;stroke-miterlimit:10;stroke-width:6px;}.cls-2{opacity:.9;}.cls-3{opacity:.8;}.cls-4,.cls-5,.cls-6{stroke-width:0px;}.cls-5{fill:#231f20;}.cls-6{fill:#fff;}</style></defs><g class="cls-3"><rect class="cls-4" x="114.66" y="5.53" width="70.87" height="70.86" rx="13.84" ry="13.84"/><path class="cls-6" d="M171.69,8.03c6.26,0,11.34,5.08,11.34,11.34v43.18c0,6.26-5.08,11.34-11.34,11.34h-43.19c-6.26,0-11.34-5.08-11.34-11.34V19.37c0-6.26,5.08-11.34,11.34-11.34h43.19M171.69,3.03h-43.19c-9.01,0-16.34,7.33-16.34,16.34v43.18c0,9.01,7.33,16.34,16.34,16.34h43.19c9.01,0,16.34-7.33,16.34-16.34V19.37c0-9.01-7.33-16.34-16.34-16.34h0Z"/></g><g class="cls-3"><rect class="cls-4" x="9.63" y="58.6" width="52.51" height="52.51" rx="10.92" ry="10.92"/><path class="cls-6" d="M51.22,61.1c4.65,0,8.42,3.77,8.42,8.42v30.67c0,4.65-3.77,8.42-8.42,8.42h-30.67c-4.65,0-8.42-3.77-8.42-8.42v-30.67c0-4.65,3.77-8.42,8.42-8.42h30.67M51.22,56.1h-30.67c-7.4,0-13.42,6.02-13.42,13.42v30.67c0,7.4,6.02,13.42,13.42,13.42h30.67c7.4,0,13.42-6.02,13.42-13.42v-30.67c0-7.4-6.02-13.42-13.42-13.42h0Z"/></g><g class="cls-3"><rect class="cls-4" x="92.66" y="88.61" width="43.62" height="43.62" rx="10.92" ry="10.92"/><path class="cls-6" d="M125.36,91.11c4.65,0,8.42,3.77,8.42,8.42v21.78c0,4.65-3.77,8.42-8.42,8.42h-21.78c-4.65,0-8.42-3.77-8.42-8.42v-21.78c0-4.65,3.77-8.42,8.42-8.42h21.78M125.36,86.11h-21.78c-7.4,0-13.42,6.02-13.42,13.42v21.78c0,7.4,6.02,13.42,13.42,13.42h21.78c7.4,0,13.42-6.02,13.42-13.42v-21.78c0-7.4-6.02-13.42-13.42-13.42h0Z"/></g><g class="cls-3"><rect class="cls-4" x="50.14" y="145.1" width="63.43" height="63.42" rx="10.92" ry="10.92"/><path class="cls-6" d="M102.65,147.6c4.65,0,8.42,3.77,8.42,8.42v41.58c0,4.65-3.77,8.42-8.42,8.42h-41.59c-4.65,0-8.42-3.77-8.42-8.42v-41.58c0-4.65,3.77-8.42,8.42-8.42h41.59M102.65,142.6h-41.59c-7.4,0-13.42,6.02-13.42,13.42v41.58c0,7.4,6.02,13.42,13.42,13.42h41.59c7.4,0,13.42-6.02,13.42-13.42v-41.58c0-7.4-6.02-13.42-13.42-13.42h0Z"/></g><g class="cls-2"><path class="cls-4" d="M182.48,181.02c-6.22-3.33-11.14-8-14.75-14.03-3.62-6.03-5.42-12.95-5.42-20.76s1.76-14.44,5.28-20.47c3.52-6.03,8.37-10.71,14.54-14.03,6.17-3.33,13.11-4.99,20.83-4.99,8.1,0,15.07,1.86,20.9,5.57,5.83,3.71,10.17,8.73,13.02,15.04,2.84,6.32,3.93,13.24,3.25,20.76h-69.29v-10.13h57.72l-7.23,6.37c.58-4.72.29-9.02-.87-12.88-1.16-3.86-3.25-6.92-6.29-9.19-3.04-2.26-6.78-3.4-11.21-3.4-3.96,0-7.52.99-10.7,2.96-3.18,1.98-5.74,4.94-7.67,8.9-1.93,3.96-2.89,8.68-2.89,14.18s1.06,9.89,3.18,13.74c2.12,3.86,5.06,6.8,8.82,8.82,3.76,2.03,8,3.04,12.73,3.04,5.11,0,9.86-1.06,14.25-3.18,4.39-2.12,8.27-5.01,11.65-8.68l7.96,4.92c-1.35,3.18-3.67,6.54-6.94,10.05-3.28,3.52-7.52,6.46-12.73,8.82-5.21,2.36-10.95,3.54-17.21,3.54-7.72,0-14.68-1.66-20.9-4.99Z"/><path class="cls-4" d="M269.71,181.02c-5.74-3.33-10.25-8-13.53-14.03-3.28-6.03-4.92-12.9-4.92-20.61s1.64-14.59,4.92-20.61c3.28-6.03,7.79-10.71,13.53-14.03,5.74-3.33,12.17-4.99,19.31-4.99,6.56,0,12.32,1.45,17.29,4.34,4.97,2.89,8.9,6.99,11.79,12.3l-3.18,4.05v-51.35h19.67v108.21h-18.37v-20.54l3.04,3.76c-2.89,5.79-6.9,10.32-12.01,13.6-5.11,3.28-11.19,4.92-18.23,4.92s-13.58-1.66-19.31-4.99ZM304.28,168.22c3.33-2.02,5.93-4.94,7.81-8.75,1.88-3.81,2.82-8.17,2.82-13.09s-.94-9.28-2.82-13.09c-1.88-3.81-4.48-6.73-7.81-8.75s-7.07-3.04-11.21-3.04-8.03,1.01-11.36,3.04-5.91,4.94-7.74,8.75c-1.83,3.81-2.75,8.17-2.75,13.09s.92,9.28,2.75,13.09c1.83,3.81,4.41,6.73,7.74,8.75,3.33,2.03,7.11,3.04,11.36,3.04s7.88-1.01,11.21-3.04Z"/><path class="cls-4" d="M352.81,76.07h19.53v108.21h-19.53v-108.21Z"/><path class="cls-4" d="M392.59,93.57c-2.22-2.22-3.33-4.87-3.33-7.96,0-3.28,1.11-6.05,3.33-8.32,2.22-2.26,4.92-3.4,8.1-3.4s5.91,1.13,8.17,3.4c2.26,2.27,3.4,5.04,3.4,8.32,0,3.09-1.13,5.74-3.4,7.96-2.27,2.22-4.99,3.33-8.17,3.33s-5.88-1.11-8.1-3.33ZM390.85,108.47h19.53v75.8h-19.53v-75.8Z"/><path class="cls-4" d="M456.24,181.16c-5.11-3.23-9.07-7.79-11.86-13.67l2.89-3.76v20.54h-18.37v-108.21h19.53v51.35l-3.04-4.05c2.89-5.3,6.8-9.4,11.72-12.3,4.92-2.89,10.66-4.34,17.21-4.34,7.23,0,13.72,1.66,19.46,4.99,5.74,3.33,10.25,8.01,13.53,14.03,3.28,6.03,4.92,12.9,4.92,20.61s-1.64,14.59-4.92,20.61c-3.28,6.03-7.79,10.71-13.53,14.03-5.74,3.33-12.22,4.99-19.46,4.99s-12.97-1.62-18.08-4.85ZM481.77,168.22c3.33-2.02,5.91-4.94,7.74-8.75,1.83-3.81,2.75-8.17,2.75-13.09s-.92-9.28-2.75-13.09c-1.83-3.81-4.41-6.73-7.74-8.75s-7.07-3.04-11.21-3.04-8.03,1.01-11.36,3.04-5.96,4.94-7.88,8.75c-1.93,3.81-2.89,8.17-2.89,13.09s.96,9.28,2.89,13.09c1.93,3.81,4.56,6.73,7.88,8.75,3.33,2.03,7.11,3.04,11.36,3.04s7.88-1.01,11.21-3.04Z"/><path class="cls-1" d="M182.48,181.02c-6.22-3.33-11.14-8-14.75-14.03-3.62-6.03-5.42-12.95-5.42-20.76s1.76-14.44,5.28-20.47c3.52-6.03,8.37-10.71,14.54-14.03,6.17-3.33,13.11-4.99,20.83-4.99,8.1,0,15.07,1.86,20.9,5.57,5.83,3.71,10.17,8.73,13.02,15.04,2.84,6.32,3.93,13.24,3.25,20.76h-69.29v-10.13h57.72l-7.23,6.37c.58-4.72.29-9.02-.87-12.88-1.16-3.86-3.25-6.92-6.29-9.19-3.04-2.26-6.78-3.4-11.21-3.4-3.96,0-7.52.99-10.7,2.96-3.18,1.98-5.74,4.94-7.67,8.9-1.93,3.96-2.89,8.68-2.89,14.18s1.06,9.89,3.18,13.74c2.12,3.86,5.06,6.8,8.82,8.82,3.76,2.03,8,3.04,12.73,3.04,5.11,0,9.86-1.06,14.25-3.18,4.39-2.12,8.27-5.01,11.65-8.68l7.96,4.92c-1.35,3.18-3.67,6.54-6.94,10.05-3.28,3.52-7.52,6.46-12.73,8.82-5.21,2.36-10.95,3.54-17.21,3.54-7.72,0-14.68-1.66-20.9-4.99Z"/><path class="cls-1" d="M269.71,181.02c-5.74-3.33-10.25-8-13.53-14.03-3.28-6.03-4.92-12.9-4.92-20.61s1.64-14.59,4.92-20.61c3.28-6.03,7.79-10.71,13.53-14.03,5.74-3.33,12.17-4.99,19.31-4.99,6.56,0,12.32,1.45,17.29,4.34,4.97,2.89,8.9,6.99,11.79,12.3l-3.18,4.05v-51.35h19.67v108.21h-18.37v-20.54l3.04,3.76c-2.89,5.79-6.9,10.32-12.01,13.6-5.11,3.28-11.19,4.92-18.23,4.92s-13.58-1.66-19.31-4.99ZM304.28,168.22c3.33-2.02,5.93-4.94,7.81-8.75,1.88-3.81,2.82-8.17,2.82-13.09s-.94-9.28-2.82-13.09c-1.88-3.81-4.48-6.73-7.81-8.75s-7.07-3.04-11.21-3.04-8.03,1.01-11.36,3.04-5.91,4.94-7.74,8.75c-1.83,3.81-2.75,8.17-2.75,13.09s.92,9.28,2.75,13.09c1.83,3.81,4.41,6.73,7.74,8.75,3.33,2.03,7.11,3.04,11.36,3.04s7.88-1.01,11.21-3.04Z"/><path class="cls-1" d="M352.81,76.07h19.53v108.21h-19.53v-108.21Z"/><path class="cls-1" d="M392.59,93.57c-2.22-2.22-3.33-4.87-3.33-7.96,0-3.28,1.11-6.05,3.33-8.32,2.22-2.26,4.92-3.4,8.1-3.4s5.91,1.13,8.17,3.4c2.26,2.27,3.4,5.04,3.4,8.32,0,3.09-1.13,5.74-3.4,7.96-2.27,2.22-4.99,3.33-8.17,3.33s-5.88-1.11-8.1-3.33ZM390.85,108.47h19.53v75.8h-19.53v-75.8Z"/><path class="cls-1" d="M456.24,181.16c-5.11-3.23-9.07-7.79-11.86-13.67l2.89-3.76v20.54h-18.37v-108.21h19.53v51.35l-3.04-4.05c2.89-5.3,6.8-9.4,11.72-12.3,4.92-2.89,10.66-4.34,17.21-4.34,7.23,0,13.72,1.66,19.46,4.99,5.74,3.33,10.25,8.01,13.53,14.03,3.28,6.03,4.92,12.9,4.92,20.61s-1.64,14.59-4.92,20.61c-3.28,6.03-7.79,10.71-13.53,14.03-5.74,3.33-12.22,4.99-19.46,4.99s-12.97-1.62-18.08-4.85ZM481.77,168.22c3.33-2.02,5.91-4.94,7.74-8.75,1.83-3.81,2.75-8.17,2.75-13.09s-.92-9.28-2.75-13.09c-1.83-3.81-4.41-6.73-7.74-8.75s-7.07-3.04-11.21-3.04-8.03,1.01-11.36,3.04-5.96,4.94-7.88,8.75c-1.93,3.81-2.89,8.17-2.89,13.09s.96,9.28,2.89,13.09c1.93,3.81,4.56,6.73,7.88,8.75,3.33,2.03,7.11,3.04,11.36,3.04s7.88-1.01,11.21-3.04Z"/><path class="cls-5" d="M182.48,181.02c-6.22-3.33-11.14-8-14.75-14.03-3.62-6.03-5.42-12.95-5.42-20.76s1.76-14.44,5.28-20.47c3.52-6.03,8.37-10.71,14.54-14.03,6.17-3.33,13.11-4.99,20.83-4.99,8.1,0,15.07,1.86,20.9,5.57,5.83,3.71,10.17,8.73,13.02,15.04,2.84,6.32,3.93,13.24,3.25,20.76h-69.29v-10.13h57.72l-7.23,6.37c.58-4.72.29-9.02-.87-12.88-1.16-3.86-3.25-6.92-6.29-9.19-3.04-2.26-6.78-3.4-11.21-3.4-3.96,0-7.52.99-10.7,2.96-3.18,1.98-5.74,4.94-7.67,8.9-1.93,3.96-2.89,8.68-2.89,14.18s1.06,9.89,3.18,13.74c2.12,3.86,5.06,6.8,8.82,8.82,3.76,2.03,8,3.04,12.73,3.04,5.11,0,9.86-1.06,14.25-3.18,4.39-2.12,8.27-5.01,11.65-8.68l7.96,4.92c-1.35,3.18-3.67,6.54-6.94,10.05-3.28,3.52-7.52,6.46-12.73,8.82-5.21,2.36-10.95,3.54-17.21,3.54-7.72,0-14.68-1.66-20.9-4.99Z"/><path class="cls-5" d="M269.71,181.02c-5.74-3.33-10.25-8-13.53-14.03-3.28-6.03-4.92-12.9-4.92-20.61s1.64-14.59,4.92-20.61c3.28-6.03,7.79-10.71,13.53-14.03,5.74-3.33,12.17-4.99,19.31-4.99,6.56,0,12.32,1.45,17.29,4.34,4.97,2.89,8.9,6.99,11.79,12.3l-3.18,4.05v-51.35h19.67v108.21h-18.37v-20.54l3.04,3.76c-2.89,5.79-6.9,10.32-12.01,13.6-5.11,3.28-11.19,4.92-18.23,4.92s-13.58-1.66-19.31-4.99ZM304.28,168.22c3.33-2.02,5.93-4.94,7.81-8.75,1.88-3.81,2.82-8.17,2.82-13.09s-.94-9.28-2.82-13.09c-1.88-3.81-4.48-6.73-7.81-8.75s-7.07-3.04-11.21-3.04-8.03,1.01-11.36,3.04-5.91,4.94-7.74,8.75c-1.83,3.81-2.75,8.17-2.75,13.09s.92,9.28,2.75,13.09c1.83,3.81,4.41,6.73,7.74,8.75,3.33,2.03,7.11,3.04,11.36,3.04s7.88-1.01,11.21-3.04Z"/><path class="cls-5" d="M352.81,76.07h19.53v108.21h-19.53v-108.21Z"/><path class="cls-5" d="M392.59,93.57c-2.22-2.22-3.33-4.87-3.33-7.96,0-3.28,1.11-6.05,3.33-8.32,2.22-2.26,4.92-3.4,8.1-3.4s5.91,1.13,8.17,3.4c2.26,2.27,3.4,5.04,3.4,8.32,0,3.09-1.13,5.74-3.4,7.96-2.27,2.22-4.99,3.33-8.17,3.33s-5.88-1.11-8.1-3.33ZM390.85,108.47h19.53v75.8h-19.53v-75.8Z"/><path class="cls-5" d="M456.24,181.16c-5.11-3.23-9.07-7.79-11.86-13.67l2.89-3.76v20.54h-18.37v-108.21h19.53v51.35l-3.04-4.05c2.89-5.3,6.8-9.4,11.72-12.3,4.92-2.89,10.66-4.34,17.21-4.34,7.23,0,13.72,1.66,19.46,4.99,5.74,3.33,10.25,8.01,13.53,14.03,3.28,6.03,4.92,12.9,4.92,20.61s-1.64,14.59-4.92,20.61c-3.28,6.03-7.79,10.71-13.53,14.03-5.74,3.33-12.22,4.99-19.46,4.99s-12.97-1.62-18.08-4.85ZM481.77,168.22c3.33-2.02,5.91-4.94,7.74-8.75,1.83-3.81,2.75-8.17,2.75-13.09s-.92-9.28-2.75-13.09c-1.83-3.81-4.41-6.73-7.74-8.75s-7.07-3.04-11.21-3.04-8.03,1.01-11.36,3.04-5.96,4.94-7.88,8.75c-1.93,3.81-2.89,8.17-2.89,13.09s.96,9.28,2.89,13.09c1.93,3.81,4.56,6.73,7.88,8.75,3.33,2.03,7.11,3.04,11.36,3.04s7.88-1.01,11.21-3.04Z"/></g></svg>