<?xml version="1.0" encoding="utf-8"?>
<!-- Generator: Adobe Illustrator 28.2.0, SVG Export Plug-In . SVG Version: 6.00 Build 0)  -->
<svg version="1.1" id="ab47acfe-844d-4101-aa7b-df38aa50dbe4"
	 xmlns="http://www.w3.org/2000/svg" xmlns:xlink="http://www.w3.org/1999/xlink" x="0px" y="0px" viewBox="0 0 980 650"
	 style="enable-background:new 0 0 980 650;" xml:space="preserve">
<style type="text/css">
	.st0{fill:#CACACA;}
	.st1{fill:#F2F2F2;}
	.st2{fill:#E6E6E6;}
	.st3{fill:#2F2E41;}
	.st4{fill:#FFB8B8;}
	.st5{fill:#72AA8F;}
	.st6{fill:#3F3D56;}
	.st7{fill:#A3CFBB;}
	.st8{fill:#D1E7DD;}
	.st9{fill:#6C63FF;}
</style>
<path class="st0" d="M738.5,510.4L738.5,510.4c-2.7-17.9-3.4-36.1-2.1-54.1l2.1-29.9l0,0C726.9,449.4,729.5,479.6,738.5,510.4
	L738.5,510.4z"/>
<path class="st0" d="M747.5,515.4L747.5,515.4c-1.3-10.7-1.6-21.5-1-32.2l1-17.8l0,0C741.9,479.1,743.2,497.1,747.5,515.4z"/>
<path class="st1" d="M787.5,537.4v10c0,1.7-1.3,3-3,3h-5c-0.6,0-1,0.4-1,1c0,0,0,0,0,0v82c0,1.7-1.3,3-3,3h-61c-1.7,0-3-1.3-3-3v-82
	c0-0.6-0.4-1-1-1h-6c-1.7,0-3-1.3-3-3v-10c0-1.7,1.3-3,3-3c0,0,0,0,0,0h80C786.1,534.4,787.5,535.8,787.5,537.4z"/>
<rect x="711.6" y="552.5" class="st2" width="67" height="3"/>
<path class="st2" d="M778.5,596.7c-22.4,9.3-45.1,9.4-68,0v-21.1c22.1-7.4,45.9-7.4,68,0V596.7z"/>
<circle class="st3" cx="456.5" cy="224" r="36.4"/>
<path class="st3" d="M466.6,188.6c20.1,0,36.4,16.3,36.4,36.4c0,6-1.5,12-4.4,17.3c12.5-15.7,10-38.6-5.7-51.1
	c-15.7-12.5-38.6-10-51.1,5.7c-1.4,1.7-2.6,3.5-3.6,5.5C445.1,193.6,455.6,188.6,466.6,188.6z"/>
<circle class="st3" cx="388.5" cy="117" r="106.9"/>
<path class="st3" d="M304.6,50.7c38.3-43.1,103.8-48,148.2-11.2c-0.9-0.8-1.7-1.7-2.6-2.5c-44.2-39.2-111.7-35.2-150.9,9
	C260,90.1,263.9,157.6,308,196.8c0.9,0.8,1.8,1.6,2.8,2.3C269,159.4,266.3,93.7,304.6,50.7z"/>
<circle class="st4" cx="387.6" cy="154.1" r="68.9"/>
<path class="st0" d="M422.7,241.7l-73.7,3.3c0,0,6.2,38.1-33.7,41.7c-39.9,3.6-76.1-7.2-90.6,19.9c-14.5,27.2-8.2,124-8.2,124
	s27.2,97.9,48.9,112.3s212-5.4,212-5.4L557.1,437l-2.7-77.5c-1.4-40.5-38.4-70.9-78.2-63.4c-0.8,0.1-1.6,0.3-2.4,0.5
	c-1.2,0.3-8.7-6.5-32.7-18.5C426.4,270.7,422.7,241.7,422.7,241.7z"/>
<path class="st3" d="M262.8,284.9c0,0,17.5,31.8,10.3,77.1c-7.2,45.3,23.2,141.1,23.2,141.1l21.7-5.4c0,0-14.5-94.2-10.9-116
	s4.6-85.9-13.5-96.8S262.8,284.9,262.8,284.9z"/>
<path class="st3" d="M472.5,301.6l7.6,200.6l14.5,9.1c0,0,20.8-220.2,10-220.2h-22.1c-5.5,0-10,4.5-10,10l0,0
	C472.5,301.3,472.5,301.4,472.5,301.6z"/>
<circle class="st5" cx="306.2" cy="489.5" r="9.1"/>
<circle class="st5" cx="487.4" cy="498.6" r="9.1"/>
<polygon class="st3" points="328.7,68.1 328.7,136.9 344.6,136.9 364.9,115.2 362.2,136.9 432.7,136.9 428.3,115.2 437,136.9 
	448.3,136.9 448.3,68.1 "/>
<ellipse class="st4" cx="317.8" cy="139.6" rx="5.4" ry="10"/>
<ellipse class="st4" cx="457.3" cy="139.6" rx="5.4" ry="10"/>
<path class="st6" d="M608.2,618.4v6.1c0,1.7-0.3,3.3-0.9,4.9c-0.3,0.7-0.6,1.4-1,2c-2.4,4.1-6.8,6.6-11.5,6.6H148.2
	c-4.7,0-9.1-2.5-11.6-6.6c-0.4-0.6-0.7-1.3-1-2c-0.6-1.6-0.9-3.2-0.9-4.9v-6.1c0-7.4,6-13.4,13.4-13.4h0h25.7v-2.8
	c0-0.3,0.2-0.6,0.6-0.6h0h13.4c0.3,0,0.6,0.2,0.6,0.6v2.8h8.4v-2.8c0-0.3,0.2-0.6,0.6-0.6h0h13.4c0.3,0,0.6,0.2,0.6,0.6v2.8h8.4
	v-2.8c0-0.3,0.2-0.6,0.6-0.6h0h13.4c0.3,0,0.6,0.2,0.6,0.6v2.8h8.4v-2.8c0-0.3,0.2-0.6,0.6-0.6h0h13.4c0.3,0,0.6,0.2,0.6,0.6v2.8
	h8.4v-2.8c0-0.3,0.2-0.6,0.6-0.6h0h13.4c0.3,0,0.6,0.2,0.6,0.6v2.8h8.4v-2.8c0-0.3,0.2-0.6,0.6-0.6h0h13.4c0.3,0,0.6,0.2,0.6,0.6
	v2.8h8.4v-2.8c0-0.3,0.2-0.6,0.6-0.6l0,0h105.2c0.3,0,0.6,0.2,0.6,0.6l0,0v2.8h8.4v-2.8c0-0.3,0.2-0.6,0.6-0.6l0,0h13.4
	c0.3,0,0.6,0.3,0.6,0.6v2.8h8.4v-2.8c0-0.3,0.2-0.6,0.6-0.6l0,0h13.4c0.3,0,0.6,0.2,0.6,0.6l0,0v2.8h8.4v-2.8c0-0.3,0.2-0.6,0.6-0.6
	l0,0h13.4c0.3,0,0.6,0.2,0.6,0.6l0,0v2.8h8.4v-2.8c0-0.3,0.2-0.6,0.6-0.6l0,0h13.4c0.3,0,0.6,0.3,0.5,0.6v2.8h8.4v-2.8
	c0-0.3,0.2-0.6,0.6-0.6l0,0h13.4c0.3,0,0.6,0.2,0.6,0.6l0,0v2.8h8.4v-2.8c0-0.3,0.2-0.6,0.6-0.6l0,0H555c0.3,0,0.6,0.2,0.6,0.6l0,0
	v2.8h39.2C602.1,605,608.1,611,608.2,618.4L608.2,618.4z"/>
<rect x="5" y="636.4" class="st6" width="971.1" height="2"/>
<path class="st6" d="M572.2,362.8h-409c-6.2,0-11.3,5-11.3,11.3l0,0V602c0,6.2,5,11.3,11.3,11.3h409c6.2,0,11.3-5,11.3-11.3V374.1
	C583.5,367.9,578.4,362.8,572.2,362.8L572.2,362.8z"/>
<circle class="st5" cx="368" cy="442.4" r="25"/>
<polygon class="st6" points="522.8,277.2 649,150 708.6,150 708.6,148 648.1,148 647.8,148.3 521.3,275.8 "/>
<rect x="781.3" y="97.8" class="st5" width="146.2" height="13"/>
<path class="st6" d="M763.5,119.1h-31v-31h31V119.1z M734.6,117.1h27v-27h-27L734.6,117.1z"/>
<rect x="781.3" y="141.2" class="st5" width="146.2" height="13"/>
<path class="st6" d="M763.5,162.5h-31v-31h31V162.5z M734.6,160.5h27v-27h-27L734.6,160.5z"/>
<rect x="781.3" y="184.7" class="st5" width="146.2" height="13"/>
<path class="st6" d="M763.5,205.9h-31v-31h31V205.9z M734.6,203.9h27v-27h-27L734.6,203.9z"/>
<rect x="-225.4" y="201.7" class="st7" width="108" height="108"/>
<rect x="-225.4" y="338.2" class="st8" width="108" height="108"/>
<rect x="-225.4" y="66.3" class="st5" width="108" height="108"/>
<rect x="-225.4" y="474.7" class="st9" width="108" height="108"/>
<text transform="matrix(1 0 0 1 -369.5112 535.7848)" style="fill:#FDFFFE; font-family:'MyriadPro-Regular'; font-size:18px;">Original</text>
<text transform="matrix(1 0 0 1 -370.8789 255.6619)"><tspan x="0" y="0" style="fill:#FDFFFE; font-family:'MyriadPro-Regular'; font-size:18px;">Design green </tspan><tspan x="0" y="21.6" style="fill:#FDFFFE; font-family:'MyriadPro-Regular'; font-size:18px;">a3cfbb </tspan></text>
<text transform="matrix(1 0 0 1 -373.6143 385.0808)"><tspan x="0" y="0" style="fill:#FDFFFE; font-family:'MyriadPro-Regular'; font-size:18px;">Design light green </tspan><tspan x="0" y="21.6" style="fill:#FDFFFE; font-family:'MyriadPro-Regular'; font-size:18px;">d1e7dd</tspan></text>
<text transform="matrix(1 0 0 1 -372.2466 120.2607)"><tspan x="0" y="0" style="fill:#FDFFFE; font-family:'MyriadPro-Regular'; font-size:18px;">New dark green </tspan><tspan x="0" y="21.6" style="fill:#FDFFFE; font-family:'MyriadPro-Regular'; font-size:18px;">72aa8f</tspan></text>
</svg>
