<?xml version="1.0" encoding="UTF-8" standalone="no"?>
<svg
   version="1.1"
   id="b2067efd-c319-47f4-994e-f8ea2344f64c"
   x="0px"
   y="0px"
   viewBox="0 0 744.8 449.1"
   style="enable-background:new 0 0 744.8 449.1;"
   xml:space="preserve"
   xmlns="http://www.w3.org/2000/svg"
   xmlns:svg="http://www.w3.org/2000/svg"><defs
   id="defs22" />
<style
   type="text/css"
   id="style1">
	.st0{fill:#F2F2F2;}
	.st1{fill:#FFFFFF;}
	.st2{fill:#3F3D56;}
	.st3{fill:#72AA8F;}
	.st4{fill:#FFB8B8;}
	.st5{fill:#6C63FF;}
	.st6{fill:#2F2E41;}
</style>
<path
   class="st0"
   d="M725.2,449.1c68.2-120.7-62.6-182.5-79.5-55.1c-0.9-16.4-1.8-33.2-7.2-48.7c-8.3-32.2-53.4-55.6-74.9-23  c-11.4,20.2,3.7,48.6-9.4,67.7c-8.3-48.2-78.3-36.9-70.9,11.5c5.5,23.2,30.1,36.8,49.7,47.3L725.2,449.1z"
   id="path1" />
<path
   class="st1"
   d="M493.4,372.4c34.6,11.2,77.9,30.2,81.4,71.6c0.1,1.6,2.7,1.7,2.6,0c-0.9-14.6-8-28-17.9-38.6  c-10.8-11.6-24.8-19.5-39.3-25.7C517.4,379.1,487.9,365.2,493.4,372.4z"
   id="path2" />
<path
   class="st1"
   d="M580.9,311.9c24,40,35.4,86.3,32.7,132.9c-0.1,1.7,2.5,1.6,2.6,0c2-36.6-4.5-73.2-19-106.8  C595.5,335,582.3,303.2,580.9,311.9z"
   id="path3" />
<path
   class="st1"
   d="M706.5,326.6c-16.9,38-27.4,78.5-31,120c-0.1,1.6,2.4,1.6,2.6,0c2.8-31.9,9.7-63.4,20.5-93.6  C698.6,349.7,713.4,322.4,706.5,326.6L706.5,326.6z"
   id="path4" />
<path
   class="st0"
   d="M409.2,447.1c19.5-34.6-17.9-52.2-22.8-15.8c-0.2-4.7-0.5-9.5-2.1-13.9c-2.4-9.2-15.3-15.9-21.4-6.6  c-3.3,5.8,1.1,13.9-2.7,19.4c-2.4-13.8-22.4-10.6-20.3,3.3c1.6,6.7,8.6,10.5,14.2,13.5L409.2,447.1z"
   id="path5" />
<path
   class="st1"
   d="M342.8,425.1c9.9,3.2,22.3,8.6,23.3,20.5c0,0.5,0.8,0.5,0.7,0c-0.4-4.2-2.2-8.1-5.1-11c-3.2-3.2-7-5.7-11.2-7.3  C349.7,427,341.3,423,342.8,425.1z"
   id="path6" />
<path
   class="st1"
   d="M367.9,407.8c6.9,11.5,10.1,24.7,9.4,38c0,0.5,0.7,0.5,0.7,0c0.6-10.5-1.3-21-5.5-30.6  C372.1,414.4,368.3,405.3,367.9,407.8L367.9,407.8z"
   id="path7" />
<path
   class="st1"
   d="M403.8,412c-4.8,10.9-7.8,22.5-8.9,34.3c0,0.5,0.7,0.5,0.7,0c0.8-9.1,2.8-18.1,5.9-26.8  C401.6,418.6,405.8,410.8,403.8,412L403.8,412z"
   id="path8" />
<path
   class="st2"
   d="M284,19H1c-0.6,0-1-0.4-1-1s0.4-1,1-1h283c0.6,0,1,0.4,1,1S284.6,19,284,19z"
   id="path9" />
<circle
   class="st3"
   cx="225.8"
   cy="17"
   r="17"
   id="circle9"
   style="fill:#72aa8f;fill-opacity:1" />
<path
   class="st2"
   d="M284,83H1c-0.6,0-1-0.4-1-1s0.4-1,1-1h283c0.6,0,1,0.4,1,1S284.6,83,284,83z"
   id="path10" />
<circle
   class="st3"
   cx="67.8"
   cy="81"
   r="17"
   id="circle10"
   style="fill:#72aa8f;fill-opacity:1" />
<path
   class="st2"
   d="M284,147H1c-0.6,0-1-0.4-1-1s0.4-1,1-1h283c0.6,0,1,0.4,1,1S284.6,147,284,147z"
   id="path11" />
<circle
   class="st3"
   cx="134.8"
   cy="145"
   r="17"
   id="circle11"
   style="fill:#72aa8f;fill-opacity:1" />
<path
   class="st4"
   d="M413.6,157.2c0.4,0.5,0.7,1,0.9,1.5l52.7,5.9l7.7-10.4l17.1,9.5l-15.1,25.2L412.4,172  c-4.5,4.3-11.6,4.2-15.9-0.3s-4.2-11.6,0.3-15.9c4.5-4.3,11.6-4.2,15.9,0.3C413,156.4,413.3,156.8,413.6,157.2L413.6,157.2z"
   id="path12"
   style="fill:#ffb8b8;fill-opacity:1" />
<path
   class="st5"
   d="M488.3,172.8c-0.4-0.2-0.8-0.4-1.2-0.7l-21.2-17.8c-2-1.7-2.3-4.7-0.6-6.8c0.1-0.1,0.2-0.2,0.3-0.3l19.2-19.3  c1.7-1.7,4.3-1.9,6.2-0.5l14.5,10.6c1.9,1.4,2.5,3.9,1.5,6l-12.6,26.6C493.4,172.8,490.7,173.8,488.3,172.8z"
   id="path13" />
<polygon
   class="st4"
   points="570.9,425.2 558.2,428.6 538.9,381.4 557.6,376.4 "
   id="polygon13"
   style="fill:#ffb8b8;fill-opacity:1" />
<path
   class="st6"
   d="M547.2,427.7l25.4-6.9l0,0l4.2,15.4l0,0L537,447l0,0l-0.3-1C534.6,438.1,539.3,429.9,547.2,427.7L547.2,427.7z"
   id="path14"
   style="fill:#2f2e41;fill-opacity:1" />
<polygon
   class="st4"
   points="462.7,434.8 449.6,434.8 443.4,384.2 462.7,384.2 "
   id="polygon14"
   style="fill:#ffb8b8;fill-opacity:1" />
<path
   class="st6"
   d="M439.2,431.1h26.3l0,0V447l0,0h-41.2l0,0v-1C424.3,437.7,431,431.1,439.2,431.1z"
   id="path15"
   style="fill:#2f2e41;fill-opacity:1" />
<circle
   class="st4"
   cx="482.5"
   cy="74.6"
   r="26.3"
   id="circle15"
   style="fill:#ffb8b8;fill-opacity:1" />
<path
   class="st6"
   d="M461.9,398.8H444c-2.5,0-4.6-2-4.8-4.5c-5.3-84.9-2.2-145.8,9.8-191.6c0.1-0.2,0.1-0.4,0.2-0.6l1-2.4  c0.7-1.8,2.5-3,4.5-3h36.8c1.4,0,2.7,0.6,3.7,1.7l5,5.8c0.1,0.1,0.2,0.2,0.3,0.4c22.6,31.5,42.8,93,66.2,175.7  c0.7,2.5-0.7,5.1-3.2,5.9l-19.3,6.2c-2.3,0.7-4.8-0.3-5.8-2.5l-50-103.6c-0.9-1.9-3.1-2.6-5-1.7c-1.1,0.5-1.9,1.6-2.1,2.9  l-14.7,107.4C466.4,397,464.3,398.7,461.9,398.8z"
   id="path16"
   style="fill:#2f2e41;fill-opacity:1" />
<path
   class="st3"
   d="M498.1,204.6c-0.1,0-0.1,0-0.2,0l-44.8-1.4c-2.4-0.1-4.3-1.9-4.6-4.2c-5.7-45.9,9.9-58.2,16.8-61.4  c1.2-0.5,2-1.6,2.2-2.9l0.6-4.8c0.1-0.9,0.4-1.7,1-2.3c10.9-14.1,25.8-18.6,33.7-20.1c2.6-0.5,5.1,1.3,5.6,3.9c0,0.1,0,0.2,0,0.2  l0.9,6.9c0.1,0.7,0.4,1.3,0.8,1.8c22.7,29.7-2.6,73.6-7.9,82.1l0,0C501.3,203.7,499.8,204.6,498.1,204.6z"
   id="path17"
   style="fill:#72aa8f;fill-opacity:1" />
<path
   class="st4"
   d="M494,269.8c5.2-3.6,6.5-10.8,2.8-16c-0.4-0.6-0.8-1.1-1.3-1.5l8.3-100.4l-24.8,3.4l-0.5,97.5  c-4.2,4.8-3.7,12.1,1.1,16.3C483.7,272.6,489.6,272.9,494,269.8L494,269.8z"
   id="path18"
   style="fill:#ffb8b8;fill-opacity:1" />
<path
   class="st3"
   d="M505.4,166.4c-0.5,0-0.9-0.1-1.4-0.2l-26.6-7.8c-2.5-0.7-4-3.4-3.3-6c0-0.1,0.1-0.3,0.1-0.4l9.8-25.4  c0.8-2.2,3.2-3.5,5.5-3l17.6,3.8c2.3,0.5,3.9,2.5,3.8,4.8l-0.8,29.4C510.1,164.3,508,166.3,505.4,166.4L505.4,166.4z"
   id="path19"
   style="fill:#72aa8f;fill-opacity:1" />
<path
   class="st2"
   d="M727,449H346c-0.6,0-1-0.4-1-1s0.4-1,1-1h381c0.6,0,1,0.4,1,1S727.6,449,727,449z"
   id="path20" />
<path
   class="st6"
   d="M511.4,58.3c-2-5.9-3.4-12-4.3-18.1c-0.3-3.6,0.6-7.4,3.2-9.9c4.9-4.6,13.2-2.4,18.3,2  c7.4,6.3,11.1,16.1,12.5,25.7s0.8,19.4,1.1,29.2s1.7,19.7,6.7,28.1s14.2,14.8,23.9,14.1c3.9-0.2,7.6-1.8,10.5-4.5  c2.9-2.7,4.2-6.7,3.7-10.6c5,8.9,2.4,20.9-5,27.9s-18.8,9-28.5,6s-17.7-10.5-22.5-19.4s-6.5-19.4-6.3-29.5  c0.2-7.8,1.5-15.7,0.2-23.4s-6.1-15.5-13.7-17.3L511.4,58.3z"
   id="path21"
   style="fill:#2f2e41;fill-opacity:1" />
<path
   class="st6"
   d="M477.3,68.4c-1.3,4.3-6.3,7-10.7,6.3s-8.1-4.4-9.5-8.7c-1.2-4.4-0.7-9.1,1.4-13.2c2.4-4.9,6.6-8.7,11.7-10.4  c5.2-1.7,10.9-0.8,15.3,2.4c0.5-2,2-3.6,3.9-4.1c1.9-0.5,4-0.5,5.9,0.1c5.5,1.6,10.3,5.1,13.5,9.8c3.2,4.8,5.3,10.2,6.1,15.8  c1.5,8.5,1,17.7-3.8,24.9s-14.5,11.4-22.4,8c-0.5-2.5,0.7-5.1,2-7.2s2.9-4.3,3.5-6.8s-0.5-5.6-2.9-6.4c-2.1-0.7-4.3,0.4-6.5,0.6  c-3.9,0.2-7.3-2.7-7.5-6.6c-0.1-1.2,0.2-2.5,0.7-3.6L477.3,68.4z"
   id="path22"
   style="fill:#2f2e41;fill-opacity:1" />
</svg>
