<?xml version="1.0" encoding="utf-8"?>
<!-- Generator: Adobe Illustrator 28.2.0, SVG Export Plug-In . SVG Version: 6.00 Build 0)  -->
<svg version="1.1" id="b2067efd-c319-47f4-994e-f8ea2344f64c"
	 xmlns="http://www.w3.org/2000/svg" xmlns:xlink="http://www.w3.org/1999/xlink" x="0px" y="0px" viewBox="0 0 756.5 465.1"
	 style="enable-background:new 0 0 756.5 465.1;" xml:space="preserve">
<style type="text/css">
	.st0{fill:#F2F2F2;}
	.st1{fill:#FFFFFF;}
	.st2{fill:#3F3D56;}
	.st3{fill:#72AA8F;}
	.st4{fill:#FFB8B8;}
	.st5{fill:#2F2E41;}
	.st6{fill:#A3CFBB;}
	.st7{fill:#D1E7DD;}
	.st8{fill:#6C63FF;}
</style>
<path class="st0" d="M729.2,461.6c68.2-120.7-62.6-182.5-79.5-55.1c-0.9-16.4-1.8-33.2-7.2-48.7c-8.3-32.2-53.4-55.6-74.9-23
	c-11.4,20.2,3.7,48.6-9.4,67.7c-8.3-48.2-78.3-36.9-70.9,11.5c5.5,23.2,30.1,36.8,49.7,47.3L729.2,461.6z"/>
<path class="st1" d="M497.4,384.9c34.6,11.2,77.9,30.2,81.4,71.6c0.1,1.6,2.7,1.7,2.6,0c-0.9-14.6-8-28-17.9-38.6
	c-10.8-11.6-24.8-19.5-39.3-25.7C521.4,391.6,491.9,377.7,497.4,384.9z"/>
<path class="st1" d="M584.9,324.4c24,40,35.4,86.3,32.7,132.9c-0.1,1.7,2.5,1.6,2.6,0c2-36.6-4.5-73.2-19-106.8
	C599.5,347.5,586.3,315.7,584.9,324.4z"/>
<path class="st1" d="M710.5,339.1c-16.9,38-27.4,78.5-31,120c-0.1,1.6,2.4,1.6,2.6,0c2.8-31.9,9.7-63.4,20.5-93.6
	C702.6,362.2,717.4,334.9,710.5,339.1L710.5,339.1z"/>
<path class="st0" d="M413.2,459.6c19.5-34.6-17.9-52.2-22.8-15.8c-0.2-4.7-0.5-9.5-2.1-13.9c-2.4-9.2-15.3-15.9-21.4-6.6
	c-3.3,5.8,1.1,13.9-2.7,19.4c-2.4-13.8-22.4-10.6-20.3,3.3c1.6,6.7,8.6,10.5,14.2,13.5L413.2,459.6z"/>
<path class="st1" d="M346.8,437.6c9.9,3.2,22.3,8.6,23.3,20.5c0,0.5,0.8,0.5,0.7,0c-0.4-4.2-2.2-8.1-5.1-11c-3.2-3.2-7-5.7-11.2-7.3
	C353.7,439.5,345.3,435.5,346.8,437.6z"/>
<path class="st1" d="M371.9,420.3c6.9,11.5,10.1,24.7,9.4,38c0,0.5,0.7,0.5,0.7,0c0.6-10.5-1.3-21-5.5-30.6
	C376.1,426.9,372.3,417.8,371.9,420.3L371.9,420.3z"/>
<path class="st1" d="M407.8,424.5c-4.8,10.9-7.8,22.5-8.9,34.3c0,0.5,0.7,0.5,0.7,0c0.8-9.1,2.8-18.1,5.9-26.8
	C405.6,431.1,409.8,423.3,407.8,424.5L407.8,424.5z"/>
<path class="st2" d="M288,31.5H5c-0.6,0-1-0.4-1-1s0.4-1,1-1h283c0.6,0,1,0.4,1,1S288.6,31.5,288,31.5z"/>
<circle class="st3" cx="229.8" cy="23.5" r="17"/>
<path class="st2" d="M288,95.5H5c-0.6,0-1-0.4-1-1s0.4-1,1-1h283c0.6,0,1,0.4,1,1S288.6,95.5,288,95.5z"/>
<circle class="st3" cx="71.8" cy="87.5" r="17"/>
<path class="st2" d="M288,159.5H5c-0.6,0-1-0.4-1-1s0.4-1,1-1h283c0.6,0,1,0.4,1,1S288.6,159.5,288,159.5z"/>
<circle class="st3" cx="138.8" cy="151.5" r="17"/>
<path class="st4" d="M417.6,169.7c0.4,0.5,0.7,1,0.9,1.5l52.7,5.9l7.7-10.4l17.1,9.5l-15.1,25.2l-64.6-16.9
	c-4.5,4.3-11.6,4.2-15.9-0.3s-4.2-11.6,0.3-15.9c4.5-4.3,11.6-4.2,15.9,0.3C417,168.9,417.3,169.3,417.6,169.7L417.6,169.7z"/>
<path class="st3" d="M492.3,179.3c-0.4-0.2-0.8-0.4-1.2-0.7l-21.2-17.8c-2-1.7-2.3-4.7-0.6-6.8c0.1-0.1,0.2-0.2,0.3-0.3l19.2-19.3
	c1.7-1.7,4.3-1.9,6.2-0.5l14.5,10.6c1.9,1.4,2.5,3.9,1.5,6l-12.6,26.6C497.4,179.3,494.7,180.3,492.3,179.3z"/>
<polygon class="st4" points="574.9,437.7 562.2,441.1 542.9,393.9 561.6,388.9 "/>
<path class="st5" d="M551.2,440.2l25.4-6.9l0,0l4.2,15.4l0,0L541,459.5l0,0l-0.3-1C538.6,450.6,543.3,442.4,551.2,440.2L551.2,440.2
	z"/>
<polygon class="st4" points="466.7,447.3 453.6,447.3 447.4,396.7 466.7,396.7 "/>
<path class="st5" d="M443.2,443.6h26.3l0,0v15.9l0,0h-41.2l0,0v-1C428.3,450.2,435,443.6,443.2,443.6z"/>
<circle class="st4" cx="486.5" cy="87.1" r="26.3"/>
<path class="st5" d="M465.9,411.3H448c-2.5,0-4.6-2-4.8-4.5c-5.3-84.9-2.2-145.8,9.8-191.6c0.1-0.2,0.1-0.4,0.2-0.6l1-2.4
	c0.7-1.8,2.5-3,4.5-3h36.8c1.4,0,2.7,0.6,3.7,1.7l5,5.8c0.1,0.1,0.2,0.2,0.3,0.4c22.6,31.5,42.8,93,66.2,175.7
	c0.7,2.5-0.7,5.1-3.2,5.9l-19.3,6.2c-2.3,0.7-4.8-0.3-5.8-2.5l-50-103.6c-0.9-1.9-3.1-2.6-5-1.7c-1.1,0.5-1.9,1.6-2.1,2.9
	l-14.7,107.4C470.4,409.5,468.3,411.2,465.9,411.3z"/>
<path class="st3" d="M502.1,211.1c-0.1,0-0.1,0-0.2,0l-44.8-1.4c-2.4-0.1-4.3-1.9-4.6-4.2c-5.7-45.9,9.9-58.2,16.8-61.4
	c1.2-0.5,2-1.6,2.2-2.9l0.6-4.8c0.1-0.9,0.4-1.7,1-2.3c10.9-14.1,25.8-18.6,33.7-20.1c2.6-0.5,5.1,1.3,5.6,3.9c0,0.1,0,0.2,0,0.2
	l0.9,6.9c0.1,0.7,0.4,1.3,0.8,1.8c22.7,29.7-2.6,73.6-7.9,82.1l0,0C505.3,210.2,503.8,211.1,502.1,211.1z"/>
<path class="st4" d="M498,282.3c5.2-3.6,6.5-10.8,2.8-16c-0.4-0.6-0.8-1.1-1.3-1.5l8.3-100.4l-24.8,3.4l-0.5,97.5
	c-4.2,4.8-3.7,12.1,1.1,16.3C487.7,285.1,493.6,285.4,498,282.3L498,282.3z"/>
<path class="st3" d="M509.4,172.9c-0.5,0-0.9-0.1-1.4-0.2l-26.6-7.8c-2.5-0.7-4-3.4-3.3-6c0-0.1,0.1-0.3,0.1-0.4l9.8-25.4
	c0.8-2.2,3.2-3.5,5.5-3l17.6,3.8c2.3,0.5,3.9,2.5,3.8,4.8l-0.8,29.4C514.1,170.8,512,172.8,509.4,172.9L509.4,172.9z"/>
<path class="st2" d="M731,461.5H350c-0.6,0-1-0.4-1-1s0.4-1,1-1h381c0.6,0,1,0.4,1,1S731.6,461.5,731,461.5z"/>
<path class="st5" d="M515.4,70.8c-2-5.9-3.4-12-4.3-18.1c-0.3-3.6,0.6-7.4,3.2-9.9c4.9-4.6,13.2-2.4,18.3,2
	c7.4,6.3,11.1,16.1,12.5,25.7s0.8,19.4,1.1,29.2s1.7,19.7,6.7,28.1s14.2,14.8,23.9,14.1c3.9-0.2,7.6-1.8,10.5-4.5
	c2.9-2.7,4.2-6.7,3.7-10.6c5,8.9,2.4,20.9-5,27.9s-18.8,9-28.5,6s-17.7-10.5-22.5-19.4s-6.5-19.4-6.3-29.5
	c0.2-7.8,1.5-15.7,0.2-23.4s-6.1-15.5-13.7-17.3L515.4,70.8z"/>
<path class="st5" d="M481.3,80.9c-1.3,4.3-6.3,7-10.7,6.3s-8.1-4.4-9.5-8.7c-1.2-4.4-0.7-9.1,1.4-13.2c2.4-4.9,6.6-8.7,11.7-10.4
	c5.2-1.7,10.9-0.8,15.3,2.4c0.5-2,2-3.6,3.9-4.1c1.9-0.5,4-0.5,5.9,0.1c5.5,1.6,10.3,5.1,13.5,9.8c3.2,4.8,5.3,10.2,6.1,15.8
	c1.5,8.5,1,17.7-3.8,24.9s-14.5,11.4-22.4,8c-0.5-2.5,0.7-5.1,2-7.2s2.9-4.3,3.5-6.8s-0.5-5.6-2.9-6.4c-2.1-0.7-4.3,0.4-6.5,0.6
	c-3.9,0.2-7.3-2.7-7.5-6.6c-0.1-1.2,0.2-2.5,0.7-3.6L481.3,80.9z"/>
<rect x="-153" y="87.9" class="st6" width="108" height="108"/>
<rect x="-153" y="224.4" class="st7" width="108" height="108"/>
<rect x="-153" y="-47.5" class="st3" width="108" height="108"/>
<rect x="-153" y="361" class="st8" width="108" height="108"/>
<text transform="matrix(1 0 0 1 -297.1255 422.024)" style="fill:#FDFFFE; font-family:'MyriadPro-Regular'; font-size:18px;">Original</text>
<text transform="matrix(1 0 0 1 -298.4932 141.9011)"><tspan x="0" y="0" style="fill:#FDFFFE; font-family:'MyriadPro-Regular'; font-size:18px;">Design green </tspan><tspan x="0" y="21.6" style="fill:#FDFFFE; font-family:'MyriadPro-Regular'; font-size:18px;">a3cfbb </tspan></text>
<text transform="matrix(1 0 0 1 -301.2285 271.3201)"><tspan x="0" y="0" style="fill:#FDFFFE; font-family:'MyriadPro-Regular'; font-size:18px;">Design light green </tspan><tspan x="0" y="21.6" style="fill:#FDFFFE; font-family:'MyriadPro-Regular'; font-size:18px;">d1e7dd</tspan></text>
<text transform="matrix(1 0 0 1 -299.8608 6.5)"><tspan x="0" y="0" style="fill:#FDFFFE; font-family:'MyriadPro-Regular'; font-size:18px;">New dark green </tspan><tspan x="0" y="21.6" style="fill:#FDFFFE; font-family:'MyriadPro-Regular'; font-size:18px;">72aa8f</tspan></text>
</svg>
