<?xml version="1.0" encoding="utf-8"?>
<!-- Generator: Adobe Illustrator 28.2.0, SVG Export Plug-In . SVG Version: 6.00 Build 0)  -->
<svg version="1.1" id="a6791429-d438-45aa-bc7c-827b738cb04a"
	 xmlns="http://www.w3.org/2000/svg" xmlns:xlink="http://www.w3.org/1999/xlink" x="0px" y="0px" viewBox="0 0 928.5 635.2"
	 style="enable-background:new 0 0 928.5 635.2;" xml:space="preserve">
<style type="text/css">
	.st0{fill:#F2F2F2;}
	.st1{fill:#E6E6E6;}
	.st2{fill:#72AA8F;}
	.st3{fill:#2F2E41;}
	.st4{fill:#A0616A;}
	.st5{fill:#3F3D56;}
	.st6{fill:#CCCCCC;}
</style>
<circle class="st0" cx="546.4" cy="233" r="233"/>
<path class="st1" d="M131.4,563.3c12.9,4.5,27.2,2,37.7-6.6c13.2-11.1,17.4-29.4,20.7-46.3l10-50L179,474.8
	c-15,10.3-30.4,21-40.8,36c-10.4,15-14.9,35.4-6.6,51.6"/>
<path class="st0" d="M133.2,623.9c-2.1-15.4-4.3-31-2.8-46.5c1.3-13.8,5.5-27.3,14.1-38.4c4.6-5.9,10.1-10.9,16.4-14.8
	c1.6-1,3.1,1.6,1.5,2.6c-10.9,6.9-19.3,17-24,29c-5.2,13.3-6.1,27.8-5.2,41.9c0.5,8.5,1.7,17,2.9,25.5c0.2,0.8-0.3,1.6-1,1.8
	C134.2,625.2,133.4,624.7,133.2,623.9L133.2,623.9z"/>
<path class="st1" d="M273,602.7c5,5.9,12.8,8.8,20.5,7.6c9.7-1.6,17-9.4,23.5-16.8l19.3-21.7l-14.4,1c-10.4,0.8-21,1.6-30.4,5.9
	s-17.5,13.1-18.1,23.5"/>
<path class="st0" d="M256.4,633c3.4-8.2,6.8-16.5,12-23.7c4.6-6.4,10.6-11.8,18-14.8c3.9-1.6,8.1-2.4,12.3-2.6c1.1,0,1.1,1.7,0,1.7
	c-7.3,0.2-14.4,2.8-20.1,7.3c-6.4,5-11,11.9-14.6,19.1c-2.2,4.4-4.1,8.9-5.9,13.4c-0.1,0.4-0.6,0.7-1,0.6
	C256.6,634,256.3,633.5,256.4,633L256.4,633z"/>
<path class="st1" d="M153.5,596.7c5.5,8.4,15,13.3,25.1,12.9c12.7-0.6,23.3-9.5,32.8-17.9l28.2-24.9l-18.6-0.9
	c-13.4-0.6-27.1-1.2-39.9,2.9s-24.5,14.1-26.9,27.3"/>
<path class="st0" d="M127.2,632.8c10.2-18,22-38,43-44.4c5.9-1.8,12-2.4,18.1-1.9c1.9,0.2,1.4,3.1-0.5,3
	c-10.2-0.8-20.4,1.9-28.9,7.6c-8.1,5.5-14.5,13.3-19.9,21.4c-3.3,5-6.2,10.2-9.2,15.4C129,635.7,126.3,634.5,127.2,632.8z"/>
<path class="st2" d="M566.3,325.7c20.2-11.1,45.4-8.9,67.2-1.3s41.5,20,62.7,29.2c64.6,28.1,142.5,23.6,203.5-11.8
	c5.8,13.4-0.4,28.7-7.2,41.7s-14.5,26.9-11.7,41.2c3.6,18.3,22.8,29.3,30.6,46.3c7.4,16.1,3.4,35-2.2,51.8
	c-5.7,16.8-13,33.7-12.1,51.4s13.8,36.4,31.5,36.4c-26.3,4.1-53.1,8.2-79.3,4s-52.4-18.1-64.6-41.7c-6.1-11.8-8.4-25.4-15.4-36.7
	c-11.9-19.2-34.8-28.3-56.4-35.1S668.2,487.8,653,471c-14.5-16-19.1-38.2-26.7-58.4c-12.9-33.7-35.4-63-64.6-84.2"/>
<path class="st3" d="M589.8,241.9c-7.1-3.3-15.8-4.4-23-1.3s-12.1,10.9-9.8,17.9c1.1,3.2,3.5,6.3,2.5,9.4c-0.7,2.5-3.2,4.1-5.7,5.2
	s-5.2,2.1-7,4.1s-2.2,5.3,0.1,6.8c0.7,0.5,1.7,0.7,2.4,1.3c1.2,1,1.7,2.7,1.2,4.2c-0.6,1.5-1.6,2.8-2.9,3.8
	c-2.5,2.2-5.9,4.7-5.1,7.8c0.6,1.7,2,3,3.7,3.5c1.8,0.5,3.6,0.7,5.4,0.7l75,2.4c2.5,0.2,5,0,7.4-0.4c2.4-0.4,4.5-1.9,5.8-3.9
	c1.4-2.7,0.5-5.9-1.3-8.4s-4.3-4.4-6.4-6.7s-3.8-5.1-3.4-8.1c0.3-2.4,1.8-4.4,3-6.5s1.8-4.8,0.3-6.8c-2-2.8-6.9-2.5-9.2-5.1
	c-1.7-2-1.4-4.8-1.6-7.3c-0.4-6.1-4.6-11.8-10.6-14.4c-6.2-2.6-13.2-2.2-19,1.3L589.8,241.9z"/>
<polygon class="st4" points="542.4,622.1 530.6,618.6 538.7,571.6 556,576.8 "/>
<path class="st3" d="M542,634.4L504.1,623l0.1-0.5c2.4-8.1,11-12.8,19.2-10.3c0,0,0,0,0,0l0,0l23.1,6.9L542,634.4z"/>
<polygon class="st4" points="653.2,622.5 640.9,622.5 635.1,575.2 653.2,575.2 "/>
<path class="st3" d="M656.3,634.4l-39.5,0v-0.5c0-8.5,6.9-15.4,15.4-15.4c0,0,0,0,0,0h0l24.1,0L656.3,634.4z"/>
<path class="st3" d="M636.2,586.7c-2.2,0-4.1-1.6-4.4-3.8l-18.2-113.6c-0.3-1.9-2.1-3.2-4-2.9c-1.2,0.2-2.2,1-2.7,2.1l-47.2,113.5
	c-0.9,2.2-3.3,3.3-5.6,2.5l-17-5.7c-2.2-0.7-3.5-3-3-5.3l38.6-171c0.4-1.7,1.7-3,3.4-3.4l51.8-12c1.3-0.3,2.6,0,3.7,0.8
	c34.1,24.8,31.2,105.8,24.9,193.8c-0.2,2.3-2,4.1-4.3,4.2l-15.9,0.7C636.3,586.7,636.2,586.7,636.2,586.7z"/>
<circle class="st4" cx="592.5" cy="282.5" r="24.6"/>
<path class="st5" d="M593.6,409.8c-5.9,0-11.7-1.4-17-3.9l-0.2-0.1l-0.1-0.2l-22-57.1l-0.4-9.9c-0.6-13.1,9.6-24.2,22.7-24.8
	c0.8,0,1.6,0,2.3,0l23.4,1.3c12.5,0.7,22.4,11.1,22.4,23.6c0.6,1.2,4.9,10.3-3.5,18.9c-0.3,2-3.3,22.2,7.9,33.4l0.3,0.3l-0.3,0.3
	C629,391.9,614.7,409.8,593.6,409.8z"/>
<path class="st4" d="M626.4,414.1c5.2-1.9,7.9-7.7,6-12.9c-0.2-0.6-0.5-1.1-0.7-1.6l23.4-27l-18.4-2.4l-19.4,26
	c-4.6,3.1-5.9,9.4-2.8,14C617.1,414.1,622.1,415.7,626.4,414.1L626.4,414.1z"/>
<path class="st5" d="M641,393.2c-0.9,0-1.7-0.3-2.5-0.7l-11.6-7.6c-2-1.3-2.6-4-1.4-6.1l8.4-14.1c1.8-3,0.8-6.8-2.2-8.6
	c-0.2-0.1-0.4-0.2-0.6-0.3l-24-10.8c-6.1-2.8-9.5-9.4-8.1-15.9l0,0c1.6-7.7,9.2-12.6,16.9-11c1.2,0.3,2.4,0.7,3.6,1.3l36.5,18.7
	c9.4,4.8,13.2,16.4,8.3,25.8c-0.4,0.9-0.9,1.7-1.5,2.5l-18,25C643.8,392.5,642.5,393.2,641,393.2z"/>
<path class="st3" d="M567.4,279c7.8-0.6,14.2-8.4,13.4-16.1c-0.2,6.6,4.6,12.3,11.1,13.2c3.6,0.4,7.5-0.7,10.6,1.1
	c3.4,2,4.5,6.8,8.1,8.5c3.5,1.7,7.8-0.6,9.5-4s1.3-7.6,0.2-11.2c-5.2-16.7-22.9-26.1-39.6-20.9c-5,1.5-9.5,4.3-13.1,7.9
	c-3.3,3.3-5.9,7.5-6.3,12.1s1.7,9.6,5.9,11.7L567.4,279z"/>
<path class="st4" d="M510.3,210.9c4.9,2.6,6.7,8.7,4.1,13.6c-0.3,0.5-0.6,1-1,1.5l19.2,30.2l-18.6-0.3l-15.3-28.6
	c-4.1-3.8-4.4-10.1-0.7-14.3C501.1,209.6,506.2,208.7,510.3,210.9L510.3,210.9z"/>
<path class="st5" d="M525.7,232.4l24.7,58.3l25.9,43.9c4,6.8,1.7,15.4-5,19.4c-1,0.6-2,1-3.1,1.4l0,0c-6.7,2-13.9-1.2-17-7.6
	l-49.9-106.5c-1.1-2.3-0.1-4.9,2.2-6c0.2-0.1,0.3-0.2,0.5-0.2l16.2-5.2c0.3-0.1,0.6-0.2,0.9-0.2
	C523.1,229.5,524.9,230.6,525.7,232.4z"/>
<path class="st6" d="M757,635.2H1c-0.6,0-1-0.4-1-1s0.4-1,1-1h756c0.6,0,1,0.4,1,1S757.6,635.2,757,635.2z"/>
<path class="st6" d="M597.9,108.2v82c0,0.6-0.4,1-1,1s-1-0.4-1-1v-82c0-0.6,0.4-1,1-1S597.9,107.7,597.9,108.2z"/>
<path class="st6" d="M684.7,177.8l-28.3,28.3c-0.4,0.4-1,0.4-1.4,0c-0.4-0.4-0.4-1,0-1.4l28.3-28.3c0.4-0.4,1-0.4,1.4,0
	C685.1,176.7,685.1,177.4,684.7,177.8C684.7,177.8,684.7,177.8,684.7,177.8z"/>
<path class="st6" d="M509,177.8l28.3,28.3c0.4,0.4,1,0.4,1.4,0c0.4-0.4,0.4-1,0-1.4l-28.3-28.3c-0.4-0.4-1-0.4-1.4,0
	C508.6,176.7,508.6,177.4,509,177.8C509,177.8,509,177.8,509,177.8L509,177.8z"/>
</svg>
