<?xml version="1.0" encoding="utf-8"?>
<!-- Generator: Adobe Illustrator 28.2.0, SVG Export Plug-In . SVG Version: 6.00 Build 0)  -->
<svg version="1.1" id="a6791429-d438-45aa-bc7c-827b738cb04a"
	 xmlns="http://www.w3.org/2000/svg" xmlns:xlink="http://www.w3.org/1999/xlink" x="0px" y="0px" viewBox="0 0 936.8 643.1"
	 style="enable-background:new 0 0 936.8 643.1;" xml:space="preserve">
<style type="text/css">
	.st0{fill:#F2F2F2;}
	.st1{fill:#E6E6E6;}
	.st2{fill:#72AA8F;}
	.st3{fill:#2F2E41;}
	.st4{fill:#A0616A;}
	.st5{fill:#3F3D56;}
	.st6{fill:#CCCCCC;}
	.st7{fill:#A3CFBB;}
	.st8{fill:#D1E7DD;}
	.st9{fill:#6C63FF;}
</style>
<circle class="st0" cx="551.4" cy="236.5" r="233"/>
<path class="st1" d="M136.4,566.8c12.9,4.5,27.2,2,37.7-6.6c13.2-11.1,17.4-29.4,20.7-46.3l10-50L184,478.3
	c-15,10.3-30.4,21-40.8,36c-10.4,15-14.9,35.4-6.6,51.6"/>
<path class="st0" d="M138.2,627.4c-2.1-15.4-4.3-31-2.8-46.5c1.3-13.8,5.5-27.3,14.1-38.4c4.6-5.9,10.1-10.9,16.4-14.8
	c1.6-1,3.1,1.6,1.5,2.6c-10.9,6.9-19.3,17-24,29c-5.2,13.3-6.1,27.8-5.2,41.9c0.5,8.5,1.7,17,2.9,25.5c0.2,0.8-0.3,1.6-1,1.8
	C139.2,628.7,138.4,628.2,138.2,627.4L138.2,627.4z"/>
<path class="st1" d="M278,606.2c5,5.9,12.8,8.8,20.5,7.6c9.7-1.6,17-9.4,23.5-16.8l19.3-21.7l-14.4,1c-10.4,0.8-21,1.6-30.4,5.9
	s-17.5,13.1-18.1,23.5"/>
<path class="st0" d="M261.4,636.5c3.4-8.2,6.8-16.5,12-23.7c4.6-6.4,10.6-11.8,18-14.8c3.9-1.6,8.1-2.4,12.3-2.6
	c1.1,0,1.1,1.7,0,1.7c-7.3,0.2-14.4,2.8-20.1,7.3c-6.4,5-11,11.9-14.6,19.1c-2.2,4.4-4.1,8.9-5.9,13.4c-0.1,0.4-0.6,0.7-1,0.6
	C261.6,637.5,261.3,637,261.4,636.5L261.4,636.5z"/>
<path class="st1" d="M158.5,600.2c5.5,8.4,15,13.3,25.1,12.9c12.7-0.6,23.3-9.5,32.8-17.9l28.2-24.9l-18.6-0.9
	c-13.4-0.6-27.1-1.2-39.9,2.9c-12.8,4.1-24.5,14.1-26.9,27.3"/>
<path class="st0" d="M132.2,636.3c10.2-18,22-38,43-44.4c5.9-1.8,12-2.4,18.1-1.9c1.9,0.2,1.4,3.1-0.5,3
	c-10.2-0.8-20.4,1.9-28.9,7.6c-8.1,5.5-14.5,13.3-19.9,21.4c-3.3,5-6.2,10.2-9.2,15.4C134,639.2,131.3,638,132.2,636.3z"/>
<path class="st2" d="M571.3,329.2c20.2-11.1,45.4-8.9,67.2-1.3s41.5,20,62.7,29.2c64.6,28.1,142.5,23.6,203.5-11.8
	c5.8,13.4-0.4,28.7-7.2,41.7s-14.5,26.9-11.7,41.2c3.6,18.3,22.8,29.3,30.6,46.3c7.4,16.1,3.4,35-2.2,51.8
	c-5.7,16.8-13,33.7-12.1,51.4c1,17.7,13.8,36.4,31.5,36.4c-26.3,4.1-53.1,8.2-79.3,4c-26.3-4.2-52.4-18.1-64.6-41.7
	c-6.1-11.8-8.4-25.4-15.4-36.7c-11.9-19.2-34.8-28.3-56.4-35.1s-44.7-13.4-59.9-30.2c-14.5-16-19.1-38.2-26.7-58.4
	c-12.9-33.7-35.4-63-64.6-84.2"/>
<path class="st3" d="M594.8,245.4c-7.1-3.3-15.8-4.4-23-1.3s-12.1,10.9-9.8,17.9c1.1,3.2,3.5,6.3,2.5,9.4c-0.7,2.5-3.2,4.1-5.7,5.2
	s-5.2,2.1-7,4.1s-2.2,5.3,0.1,6.8c0.7,0.5,1.7,0.7,2.4,1.3c1.2,1,1.7,2.7,1.2,4.2c-0.6,1.5-1.6,2.8-2.9,3.8
	c-2.5,2.2-5.9,4.7-5.1,7.8c0.6,1.7,2,3,3.7,3.5c1.8,0.5,3.6,0.7,5.4,0.7l75,2.4c2.5,0.2,5,0,7.4-0.4c2.4-0.4,4.5-1.9,5.8-3.9
	c1.4-2.7,0.5-5.9-1.3-8.4s-4.3-4.4-6.4-6.7s-3.8-5.1-3.4-8.1c0.3-2.4,1.8-4.4,3-6.5s1.8-4.8,0.3-6.8c-2-2.8-6.9-2.5-9.2-5.1
	c-1.7-2-1.4-4.8-1.6-7.3c-0.4-6.1-4.6-11.8-10.6-14.4c-6.2-2.6-13.2-2.2-19,1.3L594.8,245.4z"/>
<polygon class="st4" points="547.4,625.6 535.6,622.1 543.7,575.1 561,580.3 "/>
<path class="st3" d="M547,637.9l-37.9-11.4l0.1-0.5c2.4-8.1,11-12.8,19.2-10.3c0,0,0,0,0,0l0,0l23.1,6.9L547,637.9z"/>
<polygon class="st4" points="658.2,626 645.9,626 640.1,578.7 658.2,578.7 "/>
<path class="st3" d="M661.3,637.9l-39.5,0v-0.5c0-8.5,6.9-15.4,15.4-15.4c0,0,0,0,0,0h0l24.1,0L661.3,637.9z"/>
<path class="st3" d="M641.2,590.2c-2.2,0-4.1-1.6-4.4-3.8l-18.2-113.6c-0.3-1.9-2.1-3.2-4-2.9c-1.2,0.2-2.2,1-2.7,2.1l-47.2,113.5
	c-0.9,2.2-3.3,3.3-5.6,2.5l-17-5.7c-2.2-0.7-3.5-3-3-5.3l38.6-171c0.4-1.7,1.7-3,3.4-3.4l51.8-12c1.3-0.3,2.6,0,3.7,0.8
	c34.1,24.8,31.2,105.8,24.9,193.8c-0.2,2.3-2,4.1-4.3,4.2l-15.9,0.7C641.3,590.2,641.2,590.2,641.2,590.2z"/>
<circle class="st4" cx="597.5" cy="286" r="24.6"/>
<path class="st5" d="M598.6,413.3c-5.9,0-11.7-1.4-17-3.9l-0.2-0.1l-0.1-0.2l-22-57.1l-0.4-9.9c-0.6-13.1,9.6-24.2,22.7-24.8
	c0.8,0,1.6,0,2.3,0l23.4,1.3c12.5,0.7,22.4,11.1,22.4,23.6c0.6,1.2,4.9,10.3-3.5,18.9c-0.3,2-3.3,22.2,7.9,33.4l0.3,0.3l-0.3,0.3
	C634,395.4,619.7,413.3,598.6,413.3z"/>
<path class="st4" d="M631.4,417.6c5.2-1.9,7.9-7.7,6-12.9c-0.2-0.6-0.5-1.1-0.7-1.6l23.4-27l-18.4-2.4l-19.4,26
	c-4.6,3.1-5.9,9.4-2.8,14C622.1,417.6,627.1,419.2,631.4,417.6L631.4,417.6z"/>
<path class="st5" d="M646,396.7c-0.9,0-1.7-0.3-2.5-0.7l-11.6-7.6c-2-1.3-2.6-4-1.4-6.1l8.4-14.1c1.8-3,0.8-6.8-2.2-8.6
	c-0.2-0.1-0.4-0.2-0.6-0.3l-24-10.8c-6.1-2.8-9.5-9.4-8.1-15.9l0,0c1.6-7.7,9.2-12.6,16.9-11c1.2,0.3,2.4,0.7,3.6,1.3l36.5,18.7
	c9.4,4.8,13.2,16.4,8.3,25.8c-0.4,0.9-0.9,1.7-1.5,2.5l-18,25C648.8,396,647.5,396.7,646,396.7z"/>
<path class="st3" d="M572.4,282.5c7.8-0.6,14.2-8.4,13.4-16.1c-0.2,6.6,4.6,12.3,11.1,13.2c3.6,0.4,7.5-0.7,10.6,1.1
	c3.4,2,4.5,6.8,8.1,8.5c3.5,1.7,7.8-0.6,9.5-4s1.3-7.6,0.2-11.2c-5.2-16.7-22.9-26.1-39.6-20.9c-5,1.5-9.5,4.3-13.1,7.9
	c-3.3,3.3-5.9,7.5-6.3,12.1s1.7,9.6,5.9,11.7L572.4,282.5z"/>
<path class="st4" d="M515.3,214.4c4.9,2.6,6.7,8.7,4.1,13.6c-0.3,0.5-0.6,1-1,1.5l19.2,30.2l-18.6-0.3l-15.3-28.6
	c-4.1-3.8-4.4-10.1-0.7-14.3C506.1,213.1,511.2,212.2,515.3,214.4L515.3,214.4z"/>
<path class="st5" d="M530.7,235.9l24.7,58.3l25.9,43.9c4,6.8,1.7,15.4-5,19.4c-1,0.6-2,1-3.1,1.4l0,0c-6.7,2-13.9-1.2-17-7.6
	l-49.9-106.5c-1.1-2.3-0.1-4.9,2.2-6c0.2-0.1,0.3-0.2,0.5-0.2l16.2-5.2c0.3-0.1,0.6-0.2,0.9-0.2C528.1,233,529.9,234.1,530.7,235.9z
	"/>
<path class="st6" d="M762,638.7H6c-0.6,0-1-0.4-1-1c0-0.6,0.4-1,1-1h756c0.6,0,1,0.4,1,1C763,638.3,762.6,638.7,762,638.7z"/>
<path class="st6" d="M602.9,111.7v82c0,0.6-0.4,1-1,1s-1-0.4-1-1v-82c0-0.6,0.4-1,1-1S602.9,111.2,602.9,111.7z"/>
<path class="st6" d="M689.7,181.3l-28.3,28.3c-0.4,0.4-1,0.4-1.4,0c-0.4-0.4-0.4-1,0-1.4l28.3-28.3c0.4-0.4,1-0.4,1.4,0
	C690.1,180.2,690.1,180.9,689.7,181.3C689.7,181.3,689.7,181.3,689.7,181.3z"/>
<path class="st6" d="M514,181.3l28.3,28.3c0.4,0.4,1,0.4,1.4,0c0.4-0.4,0.4-1,0-1.4l-28.3-28.3c-0.4-0.4-1-0.4-1.4,0
	C513.6,180.2,513.6,180.9,514,181.3C514,181.3,514,181.3,514,181.3L514,181.3z"/>
<rect x="-233.4" y="199.2" class="st7" width="108" height="108"/>
<rect x="-233.4" y="335.7" class="st8" width="108" height="108"/>
<rect x="-233.4" y="63.8" class="st2" width="108" height="108"/>
<rect x="-233.4" y="472.2" class="st9" width="108" height="108"/>
<text transform="matrix(1 0 0 1 -377.5112 533.2848)" style="fill:#FDFFFE; font-family:'MyriadPro-Regular'; font-size:18px;">Original</text>
<text transform="matrix(1 0 0 1 -378.8789 253.1619)"><tspan x="0" y="0" style="fill:#FDFFFE; font-family:'MyriadPro-Regular'; font-size:18px;">Design green </tspan><tspan x="0" y="21.6" style="fill:#FDFFFE; font-family:'MyriadPro-Regular'; font-size:18px;">a3cfbb </tspan></text>
<text transform="matrix(1 0 0 1 -381.6143 382.5808)"><tspan x="0" y="0" style="fill:#FDFFFE; font-family:'MyriadPro-Regular'; font-size:18px;">Design light green </tspan><tspan x="0" y="21.6" style="fill:#FDFFFE; font-family:'MyriadPro-Regular'; font-size:18px;">d1e7dd</tspan></text>
<text transform="matrix(1 0 0 1 -380.2466 117.7607)"><tspan x="0" y="0" style="fill:#FDFFFE; font-family:'MyriadPro-Regular'; font-size:18px;">New dark green </tspan><tspan x="0" y="21.6" style="fill:#FDFFFE; font-family:'MyriadPro-Regular'; font-size:18px;">72aa8f</tspan></text>
</svg>
