<svg
    xmlns="http://www.w3.org/2000/svg"
    viewBox="0 0 851 357.5"
>
    <g>
        <path d="m31.7 235.2c42.2-25 75.5-55.2 100.5-94.4-2.2-3.5 2.2 3.5 0 0-39.8 21.6-79.5 43.2-121.5 66-11.1-28.2-4.1-54.2 4.5-78.8 31.9-92 142.7-145.5 234.9-113.5 7.3 2.5 24.1 7.8 22.9 13.5-23.5 110-111.9 194.4-203.7 205.3-10.5 1.3-21.1 1.1-37.6 1.9z" />
        <path d="m159.7 350.1c-58.6 8.5-112.9-33-126.9-97.1 31.7-9.6 59.2-6.6 85.6 9.2 32.1 19.1 46 48.6 41.3 87.9z" />
    </g>
    <g>
        <path d="m293.2 295.7c-10.4-5.8-18.6-14-24.5-24.5s-8.9-22.4-8.9-35.8c0-13 2.9-24.7 8.8-35 5.8-10.3 13.9-18.4 24.1-24.2s21.8-8.8 34.6-8.8c13 0 24.3 3.1 33.9 9.4 9.6 6.2 16.8 14.6 21.8 25.1 4.9 10.5 7.1 22 6.6 34.5h-107.5l0.9-14.5 84.071 0.45145-4.0711-16.751c-2.9-7.3-7.4-13.1-13.5-17.4-6.1-4.2-13.5-6.4-22.1-6.4-8.5 0-16.2 2.1-23 6.4-6.8 4.2-12.2 10.3-16.1 18.2s-5.9 17.2-5.9 27.9c0 10.3 2.1 19.4 6.4 27.2 4.2 7.8 10.1 13.9 17.5 18.1s15.8 6.4 25.1 6.4c10.3 0 19.7-2.4 28-7.2s15.2-11.4 20.5-19.8l10.2 5.8c-2.5 6.3-6.6 12.5-12.2 18.6-5.7 6.1-12.8 11.1-21.4 15s-18 5.9-28.4 5.9c-12.8 0.1-24.5-2.8-34.9-8.6z" />
        <path d="m444.8 295.7c-10-5.8-17.9-14-23.6-24.4-5.8-10.4-8.6-22.2-8.6-35.4s2.9-25 8.6-35.4c5.8-10.4 13.6-18.5 23.6-24.4 10-5.8 21.2-8.8 33.8-8.8 11.5 0 21.7 2.6 30.6 7.8s16.1 12.4 21.6 21.8l-3.8 4.5v-87h22.8v187h-21.2v-33l3.5 4.5c-5.2 9.8-12.4 17.5-21.8 23.1-9.3 5.6-19.9 8.4-31.8 8.4-12.4 0-23.7-2.9-33.7-8.7zm60-15c7-4.2 12.5-10.1 16.4-17.9s5.9-16.7 5.9-26.9-2-19.1-5.9-26.9-9.4-13.7-16.4-17.9-14.8-6.2-23.5-6.2-16.5 2.1-23.5 6.2c-7 4.2-12.5 10.1-16.4 17.9s-5.9 16.7-5.9 26.9 2 19.1 5.9 26.9 9.4 13.7 16.4 17.9 14.8 6.2 23.5 6.2 16.5-2.1 23.5-6.2z" />
        <path d="m587.6 114.4h22.8v187h-22.8z" />
        <path d="m649.5 140.3c-2.8-2.8-4.1-6.1-4.1-10.1s1.4-7.4 4.1-10.1 6.1-4.1 10.1-4.1 7.4 1.4 10.1 4.1 4.1 6.1 4.1 10.1-1.4 7.4-4.1 10.1-6.1 4.1-10.1 4.1-7.4-1.4-10.1-4.1zm-1.4 30.1h22.8v131h-22.8z" />
        <path d="m748.2 296.2c-9.2-5.5-16.5-13.2-21.6-23.2l3.5-4.2v32.8h-21.5v-187h22.8v87l-3.8-4.5c5.5-9.3 12.7-16.6 21.6-21.8s19.1-7.8 30.6-7.8c12.5 0 23.8 2.9 33.8 8.8 10 5.8 17.9 14 23.6 24.4 5.8 10.4 8.6 22.2 8.6 35.4s-2.9 25-8.6 35.4c-5.8 10.4-13.6 18.5-23.6 24.4s-21.2 8.8-33.8 8.8c-11.8-0.3-22.3-3-31.6-8.5zm52.4-15.5c7-4.2 12.5-10.1 16.4-17.9s5.9-16.7 5.9-26.9-2-19.1-5.9-26.9-9.4-13.7-16.4-17.9-14.8-6.2-23.5-6.2-16.5 2.1-23.5 6.2c-7 4.2-12.5 10.1-16.4 17.9s-5.9 16.7-5.9 26.9 2 19.1 5.9 26.9 9.4 13.7 16.4 17.9 14.8 6.2 23.5 6.2 16.5-2.1 23.5-6.2z" />
    </g>
</svg>
