<?xml version="1.0" encoding="utf-8"?>
<!-- Generator: Adobe Illustrator 20.1.0, SVG Export Plug-In . SVG Version: 6.00 Build 0)  -->
<svg version="1.1" id="Layer_1" xmlns="http://www.w3.org/2000/svg" xmlns:xlink="http://www.w3.org/1999/xlink" x="0px" y="0px"
	 viewBox="0 0 400 225" style="enable-background:new 0 0 400 225;" xml:space="preserve">
<style type="text/css">
	.st0{fill:#41CC8D;}
	.st1{fill:#FF2E63;}
	.st2{fill:none;}
</style>
<title>appear-in</title>
<g id="Layer_2">
	<g id="appear-in">
		<g>
			<path class="st0" d="M298.2,89.3v47.9c0,0.4,0,0.8-0.4,1s-0.7-0.2-1-0.5c-4.3-4.4-8.5-8.9-12.8-13.2c-1.6-1.6-2.5-3.9-2.3-6.1
				c0.1-19.9,0-39.9,0-59.9c-0.1-1.5,0.5-2.9,1.6-3.9c4.5-4.5,8.9-9.1,13.3-13.7c0.3-0.3,0.6-0.9,1.2-0.7s0.4,0.9,0.4,1.4
				C298.2,57.5,298.2,73.4,298.2,89.3z"/>
			<path class="st0" d="M272.4,96.9L272.4,96.9c0-0.2,0-0.4,0-0.6V47.7c0-0.5,0-1.1-0.1-1.6c-0.9-4.2-4.7-7.2-9-7.1H144.1
				c-4.9-0.1-9,3.9-9,8.8c0,0.1,0,0.1,0,0.2v10.4c0.6,0,1.1,0,1.6,0h107.8c1.4,0,2.7,0.2,4,0.7c3,1.2,5.2,3.9,5.7,7.1
				c0,0.2,0,0.3,0,0.5v70.6c0,0.5,0,0.9,0,1.4c4.5,0,9,0,13.6,0c1.5,0.1,2.8-0.7,3.5-2.1c0.8-1.5,1.2-3.3,1.2-5
				c0-11.2,0-22.4,0-33.7C272.4,97.6,272.4,97.2,272.4,96.9z"/>
			<g>
				<path class="st1" d="M254.1,137.5c0-23.6,0.1-47.2,0-70.9c-0.6-4-3.6-7.2-7.5-7.9c-1.1-0.2-2.1-0.3-3.2-0.3h-107
					c-0.6-0.1-1.2,0-1.8,0.3c-3.2,0-6.3,0-9.5,0c-1.7,0-3.4,0.4-4.9,1.3c-2.9,1.7-4.7,4.9-4.5,8.3v81c-0.2,3,1.2,5.9,3.5,7.8
					c1.9,1.4,4.1,2,6.4,1.9h39.7c0.8,0,1.6,0.2,2.2,0.7c13.2,9.3,26.3,18.5,39.5,27.7c0.3,0.2,0.6,0.7,1.1,0.5v-27.3
					c0-1.6,0-1.6,1.5-1.6c11.4,0,22.8-0.1,34.3,0c6.4,0,10.1-4.7,9.8-9.8c-0.2-3.4,0-6.9,0-10.3C254,138.5,254.1,138,254.1,137.5z
					 M205.8,133.2c-2.9-0.1-5.8,0-8.7,0c-0.8,0-1-0.3-1-1c0-1.1,0-2.3,0-3.6c-0.8,0.6-1.5,1.2-2.2,1.7c-9.8,7.7-24.4,4.6-30.6-6.9
					c-2-3.8-3.1-8-3.2-12.3c-0.1-5.3,0.8-10.4,3.7-15c3.5-5.6,8.4-9.2,15.1-10c5.6-0.8,11.3,0.9,15.5,4.8c0.5,0.5,1,0.9,1.7,1.5
					c0-1.6,0-2.9,0-4.3c0-0.7,0.2-0.9,0.9-0.9c3,0,5.9,0,8.9,0c0.8,0,1,0.3,1,1.1c0,7.2,0,14.5,0,21.7v22
					C206.9,132.9,206.7,133.2,205.8,133.2L205.8,133.2z"/>
				<path class="st1" d="M185.1,95.7c-5.5-0.6-10.6,2.6-12.6,7.7c-2.1,4.8-1.9,10.3,0.5,14.9c4.4,8.8,15.6,8.4,20.5,2.4
					c2.3-2.9,3.5-6.6,3.4-10.3c0-1.7-0.2-3.5-0.7-5.2C194.8,100,190.4,96.2,185.1,95.7z"/>
			</g>
		</g>
		<rect class="st2" width="400" height="225"/>
	</g>
</g>
</svg>
