<svg xmlns="http://www.w3.org/2000/svg" xmlns:xlink="http://www.w3.org/1999/xlink" viewBox="0 0 400 225">
  <defs>
    <style>
      .cls-1 {
        fill: #3396da;
      }

      .cls-2 {
        opacity: 0.5;
      }

      .cls-3 {
        fill: url(#linear-gradient);
      }

      .cls-4 {
        fill: none;
      }

      .cls-5 {
        opacity: 0.1;
      }

      .cls-6 {
        fill: #fff;
      }
    </style>
    <linearGradient id="linear-gradient" x1="151.52" y1="174.69" x2="219.09" y2="107.12" gradientUnits="userSpaceOnUse">
      <stop offset="0" stop-color="#3081b9"/>
      <stop offset="1" stop-color="#3396da"/>
    </linearGradient>
  </defs>
  <title>Audio</title>
  <g id="Layer_2" data-name="Layer 2">
    <g id="Layer_42" data-name="Layer 42">
      <text></text>
    </g>
    <g id="audio">
      <path class="cls-1" d="M204,25.87a87.63,87.63,0,0,0-6.63,175q3.28.25,6.63.25a87.63,87.63,0,1,0,0-175.25Z"/>
      <g class="cls-2">
        <path class="cls-3" d="M247.08,114.51c-4.06-.46-8.11-1-12.13-1.71-16.23-2.88-31.7-9.39-46.46-16.58q-2.5-1.22-5-2.49l-7.48,8-16.23-.6L123,147c.43,1,.88,2.07,1.35,3.09a87.72,87.72,0,0,0,66.91,50.08l56-71.46Z"/>
      </g>
      <rect class="cls-4" width="400" height="225"/>
      <g class="cls-5">
        <path d="M193.4,89.72v54.65a3.2,3.2,0,0,1-5.48,2.26l-16.73-16.73H158a3.27,3.27,0,0,1-3.22-3.22V107.41a3.27,3.27,0,0,1,3.22-3.22h13.16l16.73-16.73a3.22,3.22,0,0,1,5.48,2.26Zm19.35,20.12a13.1,13.1,0,0,1,2.16,7.21,13,13,0,0,1-2.16,7.18A12,12,0,0,1,207,129a2.81,2.81,0,0,1-1.27.25,3.16,3.16,0,0,1-2.28-.94,3.1,3.1,0,0,1-1-2.31,2.72,2.72,0,0,1,.61-1.8,5.91,5.91,0,0,1,1.47-1.27c.57-.36,1.15-.74,1.73-1.17a5.14,5.14,0,0,0,1.47-1.8,7.21,7.21,0,0,0,0-5.79,5.19,5.19,0,0,0-1.47-1.8c-.57-.42-1.15-.81-1.73-1.17a5.91,5.91,0,0,1-1.47-1.27,2.72,2.72,0,0,1-.61-1.8,3.09,3.09,0,0,1,1-2.31,3.17,3.17,0,0,1,2.28-.94,2.81,2.81,0,0,1,1.27.26A11.68,11.68,0,0,1,212.74,109.84ZM226,102.71a26,26,0,0,1,0,28.68A25,25,0,0,1,214.6,141a3.51,3.51,0,0,1-1.27.26,3.17,3.17,0,0,1-2.33-1,3.11,3.11,0,0,1-1-2.28,3.22,3.22,0,0,1,2-3,31.6,31.6,0,0,0,3.86-2.23,19.41,19.41,0,0,0,0-31.38A31.6,31.6,0,0,0,212,99.13a3.22,3.22,0,0,1-2-3,3.29,3.29,0,0,1,3.25-3.25,3.71,3.71,0,0,1,1.32.25A25.06,25.06,0,0,1,226,102.71Zm13.3-7.11a39,39,0,0,1-17.16,57.29,3.62,3.62,0,0,1-1.32.26,3.3,3.3,0,0,1-3.25-3.25,3.43,3.43,0,0,1,2-3,10.69,10.69,0,0,1,1.14-.53,10.91,10.91,0,0,0,1.14-.53,38.49,38.49,0,0,0,4.16-2.59,32.34,32.34,0,0,0,9.75-11.52,32.49,32.49,0,0,0,0-29.34A32.4,32.4,0,0,0,226,90.85a39.08,39.08,0,0,0-4.16-2.59,10.91,10.91,0,0,0-1.14-.53,10.69,10.69,0,0,1-1.14-.53,3.43,3.43,0,0,1-2-3A3.3,3.3,0,0,1,220.84,81a3.62,3.62,0,0,1,1.32.26A38.34,38.34,0,0,1,239.32,95.6Z"/>
      </g>
      <path class="cls-6" d="M197.4,85.72v54.65a3.2,3.2,0,0,1-5.48,2.26l-16.73-16.73H162a3.27,3.27,0,0,1-3.22-3.22V103.41a3.27,3.27,0,0,1,3.22-3.22h13.16l16.73-16.73a3.22,3.22,0,0,1,5.48,2.26Zm19.35,20.12a13.1,13.1,0,0,1,2.16,7.21,13,13,0,0,1-2.16,7.18A12,12,0,0,1,211,125a2.81,2.81,0,0,1-1.27.25,3.16,3.16,0,0,1-2.28-.94,3.1,3.1,0,0,1-1-2.31,2.72,2.72,0,0,1,.61-1.8,5.91,5.91,0,0,1,1.47-1.27c.57-.36,1.15-.74,1.73-1.17a5.14,5.14,0,0,0,1.47-1.8,7.21,7.21,0,0,0,0-5.79,5.19,5.19,0,0,0-1.47-1.8c-.57-.42-1.15-.81-1.73-1.17a5.91,5.91,0,0,1-1.47-1.27,2.72,2.72,0,0,1-.61-1.8,3.09,3.09,0,0,1,1-2.31,3.17,3.17,0,0,1,2.28-.94,2.81,2.81,0,0,1,1.27.26A11.68,11.68,0,0,1,216.74,105.84ZM230,98.71a26,26,0,0,1,0,28.68A25,25,0,0,1,218.6,137a3.51,3.51,0,0,1-1.27.26,3.17,3.17,0,0,1-2.33-1,3.11,3.11,0,0,1-1-2.28,3.22,3.22,0,0,1,2-3,31.6,31.6,0,0,0,3.86-2.23,19.41,19.41,0,0,0,0-31.38A31.6,31.6,0,0,0,216,95.13a3.22,3.22,0,0,1-2-3,3.29,3.29,0,0,1,3.25-3.25,3.71,3.71,0,0,1,1.32.25A25.06,25.06,0,0,1,230,98.71Zm13.3-7.11a39,39,0,0,1-17.16,57.29,3.62,3.62,0,0,1-1.32.26,3.3,3.3,0,0,1-3.25-3.25,3.43,3.43,0,0,1,2-3,10.69,10.69,0,0,1,1.14-.53,10.91,10.91,0,0,0,1.14-.53,38.49,38.49,0,0,0,4.16-2.59,32.34,32.34,0,0,0,9.75-11.52,32.49,32.49,0,0,0,0-29.34A32.4,32.4,0,0,0,230,86.85a39.08,39.08,0,0,0-4.16-2.59,10.91,10.91,0,0,0-1.14-.53,10.69,10.69,0,0,1-1.14-.53,3.43,3.43,0,0,1-2-3A3.3,3.3,0,0,1,224.84,77a3.62,3.62,0,0,1,1.32.26A38.34,38.34,0,0,1,243.32,91.6Z"/>
    </g>
  </g>
</svg>
