<?xml version="1.0" encoding="utf-8"?>
<!-- Generator: Adobe Illustrator 23.0.4, SVG Export Plug-In . SVG Version: 6.00 Build 0)  -->
<svg version="1.1" xmlns="http://www.w3.org/2000/svg" xmlns:xlink="http://www.w3.org/1999/xlink" x="0px" y="0px"
	 viewBox="0 0 670 450" style="enable-background:new 0 0 670 450;" xml:space="preserve">
<style type="text/css">
	.st0{fill:#1BCC49;}
	.st1{fill:#F1F2F2;}
	.st2{fill:#BCBEC0;}
	.st3{fill:#E51A2E;}
	.st4{fill:#F9D606;}
	.st5{fill:#05D3DD;}
</style>
<g id="Layer_2">
	<rect x="172.1" y="57" class="st0" width="154" height="154"/>
	<rect x="187.9" y="72.8" class="st1" width="122.3" height="122.3"/>
	<rect x="202.3" y="89.5" class="st2" width="94" height="7.2"/>
	<rect x="202.3" y="110.2" class="st2" width="94" height="7.2"/>
	<rect x="202.3" y="130.8" class="st2" width="94" height="7.2"/>
	<rect x="202.3" y="151.5" class="st2" width="94" height="7.2"/>
	<rect x="202.3" y="172.2" class="st2" width="94" height="7.2"/>
	<rect x="349.3" y="57" class="st3" width="154" height="154"/>
	<rect x="365.1" y="72.8" class="st1" width="122.3" height="122.3"/>
	<rect x="172.1" y="232" class="st4" width="154" height="154"/>
	<rect x="187.9" y="247.9" class="st1" width="122.3" height="122.3"/>
	<rect x="349.3" y="232" class="st5" width="154" height="154"/>
	<rect x="365.1" y="247.9" class="st1" width="122.3" height="122.3"/>
	<rect x="379.9" y="89.5" class="st2" width="94" height="7.2"/>
	<rect x="379.9" y="110.2" class="st2" width="94" height="7.2"/>
	<rect x="379.9" y="130.8" class="st2" width="94" height="7.2"/>
	<rect x="379.9" y="151.5" class="st2" width="94" height="7.2"/>
	<rect x="379.9" y="172.2" class="st2" width="94" height="7.2"/>
	<rect x="202.3" y="264.4" class="st2" width="94" height="7.2"/>
	<rect x="202.3" y="285.1" class="st2" width="94" height="7.2"/>
	<rect x="202.3" y="305.8" class="st2" width="94" height="7.2"/>
	<rect x="202.3" y="326.5" class="st2" width="94" height="7.2"/>
	<rect x="202.3" y="347.2" class="st2" width="94" height="7.2"/>
	<rect x="379.9" y="264.4" class="st2" width="94" height="7.2"/>
	<rect x="379.9" y="285.1" class="st2" width="94" height="7.2"/>
	<rect x="379.9" y="305.8" class="st2" width="94" height="7.2"/>
	<rect x="379.9" y="326.5" class="st2" width="94" height="7.2"/>
	<rect x="379.9" y="347.2" class="st2" width="94" height="7.2"/>
</g>
<g id="Layer_5">
</g>
<g id="Layer_7">
</g>
</svg>
