<?xml version="1.0" encoding="utf-8"?>
<!-- Generator: Adobe Illustrator 23.0.4, SVG Export Plug-In . SVG Version: 6.00 Build 0)  -->
<svg version="1.1" id="Layer_1" xmlns="http://www.w3.org/2000/svg" xmlns:xlink="http://www.w3.org/1999/xlink" x="0px" y="0px"
	 viewBox="0 0 257 150" style="enable-background:new 0 0 257 150;" xml:space="preserve">
<style type="text/css">
	.st0{fill:#42422A;}
	.st1{fill:#FFFFFF;}
	.st2{fill:#B3B3B3;}
	.st3{fill:#CCCCCC;}
	.st4{fill:#F2F2F2;}
	.st5{fill:#01DC00;}
	.st6{fill:#09AF04;}
	.st7{fill:#FE0103;}
	.st8{fill:#C60517;}
</style>
<g>
	<g>
		<rect x="57.5" y="33.6" class="st0" width="60.2" height="85.1"/>
		<rect x="61.5" y="39.4" class="st1" width="52.1" height="73.6"/>
		<rect x="74.9" y="30.7" class="st2" width="23.7" height="11.7"/>
		<rect x="74.9" y="36.6" class="st3" width="23.7" height="5.9"/>
		<g>
			<g>
				<polygon class="st4" points="66.2,54.1 66.2,51.6 108.9,51.6 108.9,54.1 66.2,54.1 				"/>
			</g>
			<g>
				<polygon class="st4" points="66.2,66 66.2,63.5 108.9,63.5 108.9,66 66.2,66 				"/>
			</g>
			<g>
				<polygon class="st4" points="66.2,77.9 66.2,75.4 108.9,75.4 108.9,77.9 66.2,77.9 				"/>
			</g>
			<g>
				<polygon class="st4" points="66.2,89.8 66.2,87.4 108.9,87.4 108.9,89.8 66.2,89.8 				"/>
			</g>
			<g>
				<polygon class="st4" points="66.2,101.7 66.2,99.3 108.9,99.3 108.9,101.7 66.2,101.7 				"/>
			</g>
		</g>
	</g>
	<g>
		<path class="st2" d="M86.9,93.4c-0.4,0-0.8-0.2-1.1-0.4L68.6,75.9c-0.3-0.3-0.5-0.7-0.5-1.1c0-0.4,0.1-0.8,0.4-1.1l4.2-4.4
			c0.3-0.3,0.7-0.5,1.1-0.5c0.4,0,0.8,0.2,1.1,0.4l11.8,11.7l15.9-16.8c0.3-0.3,0.7-0.5,1.1-0.5c0.4,0,0.8,0.2,1.1,0.4l4.3,4.3
			c0.6,0.6,0.6,1.6,0,2.2l-16,16.9c-0.3,0.3-0.4,0.5-0.5,0.5c0.1-0.1,0.1-0.1,0.1-0.2c-0.1,0.2-0.2,0.3-0.3,0.4
			c-0.1,0.1-0.2,0.2-0.3,0.4L88,92.9C87.7,93.2,87.3,93.4,86.9,93.4L86.9,93.4z"/>
		<path class="st1" d="M86.6,93.2c-0.4,0-0.8-0.2-1.1-0.4L68.3,75.7c-0.3-0.3-0.5-0.7-0.5-1.1c0-0.4,0.1-0.8,0.4-1.1l4.2-4.4
			c0.3-0.3,0.7-0.5,1.1-0.5c0.4,0,0.8,0.2,1.1,0.4l11.8,11.7l15.9-16.8c0.3-0.3,0.7-0.5,1.1-0.5c0.4,0,0.8,0.2,1.1,0.4l4.3,4.3
			c0.6,0.6,0.6,1.6,0,2.2l-16,16.9c-0.3,0.3-0.4,0.5-0.5,0.5c0.1-0.1,0.1-0.1,0.1-0.2c-0.1,0.2-0.2,0.3-0.3,0.4
			c-0.1,0.1-0.2,0.2-0.3,0.4l-4.2,4.4C87.4,93,87,93.2,86.6,93.2L86.6,93.2z"/>
		<path class="st5" d="M108.3,69.7c0.3-0.3,0.3-0.7,0-1l-4.3-4.3c-0.3-0.3-0.7-0.3-1,0l-16,16.9c-0.3,0.3-0.7,0.3-1,0L74.1,69.6
			c-0.3-0.3-0.7-0.3-1,0L68.9,74c-0.3,0.3-0.3,0.7,0,1l17.2,17.1c0.3,0.3,0.7,0.3,1,0l4.2-4.4c0.3-0.3,0.5-0.5,0.5-0.5
			c0,0,0.2-0.2,0.5-0.5L108.3,69.7z"/>
		<path class="st5" d="M108.3,69.7c0.3-0.3,0.3-0.7,0-1l-4.3-4.3c-0.3-0.3-0.7-0.3-1,0l-16,16.9c-0.3,0.3-0.7,0.3-1,0L74.1,69.6
			c-0.3-0.3-0.7-0.3-1,0L68.9,74c-0.3,0.3-0.3,0.7,0,1l17.2,17.1c0.3,0.3,0.7,0.3,1,0l4.2-4.4c0.3-0.3,0.5-0.5,0.5-0.5
			c0,0,0.2-0.2,0.5-0.5L108.3,69.7z"/>
		<path class="st6" d="M103,64.4l-16,16.9c-0.1,0.1-0.2,0.1-0.3,0.2c0.3,0.1,0.6,0,0.8-0.2l16-16.9c0.1-0.1,0.2-0.1,0.3-0.2
			C103.5,64.1,103.2,64.2,103,64.4z M69.4,75.1c-0.3-0.3-0.3-0.7,0-1l4.2-4.4c0.1-0.1,0.2-0.1,0.3-0.2c-0.3-0.1-0.6,0-0.8,0.2
			L68.9,74c-0.3,0.3-0.3,0.7,0,1l17.2,17.1c0.2,0.2,0.5,0.2,0.7,0.2c-0.1,0-0.2-0.1-0.2-0.2L69.4,75.1z"/>
	</g>
</g>
<g>
	<g>
		<rect x="139.3" y="33.6" class="st0" width="60.2" height="85.1"/>
		<rect x="143.4" y="39.4" class="st1" width="52.1" height="73.6"/>
		<rect x="156.8" y="30.7" class="st2" width="23.7" height="11.7"/>
		<rect x="156.8" y="36.6" class="st3" width="23.7" height="5.9"/>
		<g>
			<g>
				<polygon class="st4" points="148.1,54.1 148.1,51.6 190.8,51.6 190.8,54.1 148.1,54.1 				"/>
			</g>
			<g>
				<polygon class="st4" points="148.1,66 148.1,63.5 190.8,63.5 190.8,66 148.1,66 				"/>
			</g>
			<g>
				<polygon class="st4" points="148.1,77.9 148.1,75.4 190.8,75.4 190.8,77.9 148.1,77.9 				"/>
			</g>
			<g>
				<polygon class="st4" points="148.1,89.8 148.1,87.4 190.8,87.4 190.8,89.8 148.1,89.8 				"/>
			</g>
			<g>
				<polygon class="st4" points="148.1,101.7 148.1,99.3 190.8,99.3 190.8,101.7 148.1,101.7 				"/>
			</g>
		</g>
	</g>
</g>
<g>
	<path class="st2" d="M161.1,93.4c-0.4,0-0.8-0.2-1.1-0.4l-4.1-3.9c-0.7-0.6-0.7-1.7-0.1-2.3l7.5-8l-8-7.5c-0.3-0.3-0.5-0.7-0.5-1.1
		c0-0.4,0.1-0.9,0.4-1.2l3.9-4.1c0.3-0.3,0.7-0.5,1.2-0.5c0.4,0,0.8,0.2,1.1,0.4l8,7.5l7.5-8c0.3-0.3,0.7-0.5,1.2-0.5
		c0.4,0,0.8,0.2,1.1,0.4l4.1,3.9c0.7,0.6,0.7,1.7,0.1,2.3l-7.5,8l8,7.5c0.3,0.3,0.5,0.7,0.5,1.1c0,0.4-0.1,0.9-0.4,1.2l-3.9,4.1
		c-0.3,0.3-0.7,0.5-1.2,0.5c-0.4,0-0.8-0.2-1.1-0.4l-8-7.5l-7.5,8C162,93.2,161.6,93.4,161.1,93.4L161.1,93.4z"/>
	<path class="st1" d="M160.8,93.1c-0.4,0-0.8-0.2-1.1-0.4l-4.1-3.9c-0.7-0.6-0.7-1.7-0.1-2.3l7.5-8l-8-7.5c-0.3-0.3-0.5-0.7-0.5-1.1
		c0-0.4,0.1-0.9,0.4-1.2l3.9-4.1c0.3-0.3,0.7-0.5,1.2-0.5c0.4,0,0.8,0.2,1.1,0.4l8,7.5l7.5-8c0.3-0.3,0.7-0.5,1.2-0.5
		c0.4,0,0.8,0.2,1.1,0.4l4.1,3.9c0.7,0.6,0.7,1.7,0.1,2.3l-7.5,8l8,7.5c0.3,0.3,0.5,0.7,0.5,1.1c0,0.4-0.1,0.9-0.4,1.2l-3.9,4.1
		c-0.3,0.3-0.7,0.5-1.2,0.5c-0.4,0-0.8-0.2-1.1-0.4l-8-7.5l-7.5,8C161.7,92.9,161.2,93.1,160.8,93.1L160.8,93.1z"/>
	<path class="st7" d="M182.5,69.5c0.3-0.3,0.3-0.8,0-1.1l-4.1-3.9c-0.3-0.3-0.8-0.3-1.1,0l-7.5,8c-0.3,0.3-0.8,0.3-1.1,0l-8-7.5
		c-0.3-0.3-0.8-0.3-1.1,0l-3.9,4.1c-0.3,0.3-0.3,0.8,0,1.1l8,7.5c0.3,0.3,0.3,0.8,0,1.1l-7.5,8c-0.3,0.3-0.3,0.8,0,1.1l4.1,3.9
		c0.3,0.3,0.8,0.3,1.1,0l7.5-8c0.3-0.3,0.8-0.3,1.1,0l8,7.5c0.3,0.3,0.8,0.3,1.1,0l3.9-4.1c0.3-0.3,0.3-0.8,0-1.1l-8-7.5
		c-0.3-0.3-0.3-0.8,0-1.1L182.5,69.5z"/>
	<path class="st8" d="M177.7,64.5c0.1-0.1,0.2-0.2,0.3-0.2c-0.3-0.1-0.6,0-0.8,0.2l-7.5,8c-0.1,0.1-0.2,0.2-0.3,0.2
		c0.3,0.1,0.6,0,0.8-0.2L177.7,64.5z M178.6,91.5l-8-7.5c-0.2-0.2-0.5-0.3-0.8-0.2c0.1,0,0.2,0.1,0.3,0.2l8,7.5
		c0.2,0.2,0.5,0.3,0.8,0.2C178.8,91.6,178.7,91.5,178.6,91.5z M156.1,70.3c-0.3-0.3-0.3-0.8,0-1.1l3.9-4.1c0.1-0.1,0.2-0.2,0.3-0.2
		c-0.3-0.1-0.6,0-0.8,0.2l-3.9,4.1c-0.3,0.3-0.3,0.8,0,1.1l8,7.5c0.3,0.3,0.3,0.8,0,1.1l-7.5,8c-0.3,0.3-0.3,0.8,0,1.1l4.1,3.9
		c0.2,0.2,0.5,0.3,0.8,0.2c-0.1,0-0.2-0.1-0.3-0.2l-4.1-3.9c-0.3-0.3-0.3-0.8,0-1.1l7.5-8c0.3-0.3,0.3-0.8,0-1.1L156.1,70.3z"/>
</g>
</svg>
