<svg xmlns="http://www.w3.org/2000/svg" viewBox="0 0 400 225">
  <defs>
    <style>
      .cls-1 {
        fill: #fff;
      }

      .cls-2 {
        fill: #34495e;
      }

      .cls-3 {
        opacity: 0.25;
      }

      .cls-4 {
        fill: #e64c3b;
      }

      .cls-5 {
        fill: #f1c40f;
      }

      .cls-6 {
        fill: #2ecc71;
      }

      .cls-7 {
        fill: #96b9f6;
      }

      .cls-8 {
        fill: none;
      }
    </style>
  </defs>
  <title>Find multiple hotspots</title>
  <g id="Layer_2" data-name="Layer 2">
    <g id="Layer_42" data-name="Layer 42">
      <text></text>
    </g>
    <g id="Find_multiple_hotspots" data-name="Find multiple hotspots">
      <g>
        <rect class="cls-1" x="118" y="48.5" width="170" height="124"/>
        <polygon class="cls-2" points="280.64 106.88 291 117.31 291 174.5 116 174.5 116 148.98 156.05 109.39 176.06 129.19 191.8 113.57 239.68 65.74 280.64 106.88"/>
        <g>
          <g class="cls-3">
            <path d="M239.22,80.5a20,20,0,1,0-20,20A20,20,0,0,0,239.22,80.5Z"/>
          </g>
          <path class="cls-4" d="M236.93,78.21a20,20,0,1,0-20,20A20,20,0,0,0,236.93,78.21Z"/>
        </g>
        <circle class="cls-5" cx="146.25" cy="74.67" r="18.13"/>
        <g>
          <g class="cls-3">
            <path d="M204.48,137.73a20,20,0,1,0-20,20A20,20,0,0,0,204.48,137.73Z"/>
          </g>
          <path class="cls-4" d="M202.19,135.44a20,20,0,1,0-20,20A20,20,0,0,0,202.19,135.44Z"/>
        </g>
        <g>
          <g class="cls-3">
            <path d="M272.45,131.11a20,20,0,1,0-20,20A20,20,0,0,0,272.45,131.11Z"/>
          </g>
          <path class="cls-6" d="M270.16,128.82a20,20,0,1,0-20,20A20,20,0,0,0,270.16,128.82Z"/>
        </g>
        <path class="cls-1" d="M260.16,125.46l-9.71,9.71L248.62,137a1.3,1.3,0,0,1-1.82,0L245,135.17l-4.86-4.86a1.3,1.3,0,0,1,0-1.82l1.82-1.82a1.3,1.3,0,0,1,1.82,0l3.94,4,8.8-8.82a1.3,1.3,0,0,1,1.82,0l1.82,1.82a1.3,1.3,0,0,1,0,1.82Z"/>
        <path class="cls-7" d="M288,48.5v124H118V48.5H288m14-12H105v149H302V36.5Z"/>
        <path class="cls-1" d="M225.5,84.85l-1.89,1.89a1.34,1.34,0,0,1-1.89,0l-4.09-4.09-4.09,4.09a1.34,1.34,0,0,1-1.89,0l-1.89-1.89a1.34,1.34,0,0,1,0-1.89l4.09-4.09-4.09-4.09a1.34,1.34,0,0,1,0-1.89L211.63,71a1.34,1.34,0,0,1,1.89,0l4.09,4.09L221.71,71a1.34,1.34,0,0,1,1.89,0l1.89,1.89a1.34,1.34,0,0,1,0,1.89l-4.09,4.09L225.5,83a1.34,1.34,0,0,1,0,1.89Z"/>
        <path class="cls-1" d="M190.12,141.77l-1.89,1.89a1.34,1.34,0,0,1-1.89,0l-4.09-4.09-4.09,4.09a1.34,1.34,0,0,1-1.89,0l-1.89-1.89a1.34,1.34,0,0,1,0-1.89l4.09-4.09-4.09-4.09a1.34,1.34,0,0,1,0-1.89l1.89-1.89a1.34,1.34,0,0,1,1.89,0l4.09,4.09,4.09-4.09a1.34,1.34,0,0,1,1.89,0l1.89,1.89a1.34,1.34,0,0,1,0,1.89L186,135.78l4.09,4.09a1.34,1.34,0,0,1,0,1.89Z"/>
      </g>
      <rect class="cls-8" width="400" height="225"/>
    </g>
  </g>
</svg>
