<?xml version="1.0" encoding="utf-8"?>
<!-- Generator: Adobe Illustrator 23.0.4, SVG Export Plug-In . SVG Version: 6.00 Build 0)  -->
<svg version="1.1" id="Layer_1" xmlns="http://www.w3.org/2000/svg" xmlns:xlink="http://www.w3.org/1999/xlink" x="0px" y="0px"
	 viewBox="0 0 257 150" style="enable-background:new 0 0 257 150;" xml:space="preserve">
<style type="text/css">
	.st0{fill:url(#XMLID_2_);}
	.st1{fill:url(#XMLID_3_);}
	.st2{fill:url(#XMLID_4_);}
	.st3{fill:url(#XMLID_5_);}
	.st4{fill:url(#XMLID_6_);}
	.st5{fill:url(#XMLID_17_);}
	.st6{fill:url(#XMLID_18_);}
	.st7{fill:url(#XMLID_19_);}
	.st8{fill:url(#XMLID_20_);}
	.st9{fill:url(#XMLID_21_);}
	.st10{fill:url(#XMLID_22_);}
	.st11{fill:url(#XMLID_23_);}
	.st12{fill:#FFFFFF;}
</style>
<linearGradient id="XMLID_2_" gradientUnits="userSpaceOnUse" x1="75.2762" y1="19.0268" x2="184.8638" y2="49.826">
	<stop  offset="0" style="stop-color:#F7A21D"/>
	<stop  offset="3.750590e-02" style="stop-color:#F7A41F"/>
	<stop  offset="1" style="stop-color:#FEDF57"/>
</linearGradient>
<path id="XMLID_10_" class="st0" d="M193.5,35l-7.2,12.4c-0.2,0.3-0.5,0.5-0.8,0.5H75.2c-0.3,0-0.6-0.2-0.8-0.5L67.2,35
	c-0.2-0.3-0.2-0.6,0-0.9l7.2-12.4c0.2-0.3,0.5-0.5,0.8-0.5h110.3c0.3,0,0.6,0.2,0.8,0.5l7.2,12.4C193.6,34.3,193.6,34.7,193.5,35z"
	/>
<linearGradient id="XMLID_3_" gradientUnits="userSpaceOnUse" x1="71.6512" y1="31.1525" x2="165.2359" y2="60.4107">
	<stop  offset="0" style="stop-color:#F7A21D"/>
	<stop  offset="1" style="stop-color:#FEDF57"/>
</linearGradient>
<path id="XMLID_88_" class="st1" d="M97.5,35l-7.2,12.4c-0.2,0.3-0.5,0.5-0.8,0.5H75.2c-0.3,0-0.6-0.2-0.8-0.5L67.2,35
	c-0.2-0.3-0.2-0.6,0-0.9l7.2-12.4c0.2-0.3,0.5-0.5,0.8-0.5h14.4c0.3,0,0.6,0.2,0.8,0.5L97.5,34C97.7,34.3,97.7,34.7,97.5,35z"/>
<linearGradient id="XMLID_4_" gradientUnits="userSpaceOnUse" x1="71.7797" y1="17.6485" x2="92.951" y2="51.3554">
	<stop  offset="0" style="stop-color:#FEDF57"/>
	<stop  offset="1" style="stop-color:#F7A21D"/>
</linearGradient>
<path id="XMLID_53_" class="st2" d="M102,33.6L93,17.9c-0.3-0.5-0.9-0.9-1.5-0.9H73.3c-0.6,0-1.2,0.3-1.5,0.9l-9.1,15.7
	c-0.3,0.5-0.3,1.2,0,1.8l9.1,15.7c0.3,0.5,0.9,0.9,1.5,0.9h18.2c0.6,0,1.2-0.3,1.5-0.9l9.1-15.7C102.4,34.8,102.4,34.2,102,33.6z
	 M101.3,35l-9.1,15.7c-0.2,0.3-0.5,0.5-0.8,0.5H73.3c-0.3,0-0.6-0.2-0.8-0.5L63.4,35c-0.2-0.3-0.2-0.6,0-0.9l9.1-15.7
	c0.2-0.3,0.5-0.5,0.8-0.5h18.2c0.3,0,0.6,0.2,0.8,0.5l9.1,15.7C101.5,34.3,101.5,34.7,101.3,35z"/>
<linearGradient id="XMLID_5_" gradientUnits="userSpaceOnUse" x1="71.7132" y1="17.5421" x2="92.7414" y2="51.0213">
	<stop  offset="0" style="stop-color:#F7A21D"/>
	<stop  offset="1" style="stop-color:#FEDF57"/>
</linearGradient>
<path id="XMLID_16_" class="st3" d="M101.3,34l-9.1-15.7c-0.2-0.3-0.5-0.5-0.8-0.5H73.3c-0.3,0-0.6,0.2-0.8,0.5L63.4,34
	c-0.2,0.3-0.2,0.6,0,0.9l9.1,15.7c0.2,0.3,0.5,0.5,0.8,0.5h18.2c0.3,0,0.6-0.2,0.8-0.5l9.1-15.7C101.5,34.7,101.5,34.3,101.3,34z
	 M97.5,35l-7.2,12.4c-0.2,0.3-0.5,0.5-0.8,0.5H75.2c-0.3,0-0.6-0.2-0.8-0.5L67.2,35c-0.2-0.3-0.2-0.6,0-0.9l7.2-12.4
	c0.2-0.3,0.5-0.5,0.8-0.5h14.4c0.3,0,0.6,0.2,0.8,0.5L97.5,34C97.7,34.3,97.7,34.7,97.5,35z"/>
<linearGradient id="XMLID_6_" gradientUnits="userSpaceOnUse" x1="75.2762" y1="58.5406" x2="184.8638" y2="89.3398">
	<stop  offset="0" style="stop-color:#0067B5"/>
	<stop  offset="1" style="stop-color:#5392D1"/>
</linearGradient>
<path id="XMLID_51_" class="st4" d="M193.5,74.5l-7.2,12.4c-0.2,0.3-0.5,0.5-0.8,0.5H75.2c-0.3,0-0.6-0.2-0.8-0.5l-7.2-12.4
	c-0.2-0.3-0.2-0.6,0-0.9l7.2-12.4c0.2-0.3,0.5-0.5,0.8-0.5h110.3c0.3,0,0.6,0.2,0.8,0.5l7.2,12.4C193.6,73.8,193.6,74.2,193.5,74.5z
	"/>
<linearGradient id="XMLID_17_" gradientUnits="userSpaceOnUse" x1="71.6512" y1="70.6663" x2="165.2359" y2="99.9245">
	<stop  offset="0" style="stop-color:#0067B5"/>
	<stop  offset="1" style="stop-color:#5392D1"/>
</linearGradient>
<path id="XMLID_36_" class="st5" d="M97.5,74.5l-7.2,12.4c-0.2,0.3-0.5,0.5-0.8,0.5H75.2c-0.3,0-0.6-0.2-0.8-0.5l-7.2-12.4
	c-0.2-0.3-0.2-0.6,0-0.9l7.2-12.4c0.2-0.3,0.5-0.5,0.8-0.5h14.4c0.3,0,0.6,0.2,0.8,0.5l7.2,12.4C97.7,73.8,97.7,74.2,97.5,74.5z"/>
<linearGradient id="XMLID_18_" gradientUnits="userSpaceOnUse" x1="71.7797" y1="57.1623" x2="92.951" y2="90.8692">
	<stop  offset="0" style="stop-color:#5392D1"/>
	<stop  offset="1" style="stop-color:#0067B5"/>
</linearGradient>
<path id="XMLID_12_" class="st6" d="M102,73.1L93,57.4c-0.3-0.5-0.9-0.9-1.5-0.9H73.3c-0.6,0-1.2,0.3-1.5,0.9l-9.1,15.7
	c-0.3,0.5-0.3,1.2,0,1.8l9.1,15.7c0.3,0.5,0.9,0.9,1.5,0.9h18.2c0.6,0,1.2-0.3,1.5-0.9l9.1-15.7C102.4,74.4,102.4,73.7,102,73.1z
	 M101.3,74.5l-9.1,15.7c-0.2,0.3-0.5,0.5-0.8,0.5H73.3c-0.3,0-0.6-0.2-0.8-0.5l-9.1-15.7c-0.2-0.3-0.2-0.6,0-0.9l9.1-15.7
	c0.2-0.3,0.5-0.5,0.8-0.5h18.2c0.3,0,0.6,0.2,0.8,0.5l9.1,15.7C101.5,73.8,101.5,74.2,101.3,74.5z"/>
<linearGradient id="XMLID_19_" gradientUnits="userSpaceOnUse" x1="71.7132" y1="57.0559" x2="92.7414" y2="90.5351">
	<stop  offset="0" style="stop-color:#0067B5"/>
	<stop  offset="1" style="stop-color:#5392D1"/>
</linearGradient>
<path id="XMLID_7_" class="st7" d="M101.3,73.6l-9.1-15.7c-0.2-0.3-0.5-0.5-0.8-0.5H73.3c-0.3,0-0.6,0.2-0.8,0.5l-9.1,15.7
	c-0.2,0.3-0.2,0.6,0,0.9l9.1,15.7c0.2,0.3,0.5,0.5,0.8,0.5h18.2c0.3,0,0.6-0.2,0.8-0.5l9.1-15.7C101.5,74.2,101.5,73.8,101.3,73.6z
	 M97.5,74.5l-7.2,12.4c-0.2,0.3-0.5,0.5-0.8,0.5H75.2c-0.3,0-0.6-0.2-0.8-0.5l-7.2-12.4c-0.2-0.3-0.2-0.6,0-0.9l7.2-12.4
	c0.2-0.3,0.5-0.5,0.8-0.5h14.4c0.3,0,0.6,0.2,0.8,0.5l7.2,12.4C97.7,73.8,97.7,74.2,97.5,74.5z"/>
<linearGradient id="XMLID_20_" gradientUnits="userSpaceOnUse" x1="75.2762" y1="98.0544" x2="184.8638" y2="128.8535">
	<stop  offset="0" style="stop-color:#A6238F"/>
	<stop  offset="1" style="stop-color:#E962A6"/>
</linearGradient>
<path id="XMLID_100_" class="st8" d="M193.5,114l-7.2,12.4c-0.2,0.3-0.5,0.5-0.8,0.5H75.2c-0.3,0-0.6-0.2-0.8-0.5L67.2,114
	c-0.2-0.3-0.2-0.6,0-0.9l7.2-12.4c0.2-0.3,0.5-0.5,0.8-0.5h110.3c0.3,0,0.6,0.2,0.8,0.5l7.2,12.4C193.6,113.4,193.6,113.7,193.5,114
	z"/>
<linearGradient id="XMLID_21_" gradientUnits="userSpaceOnUse" x1="71.6512" y1="110.1801" x2="165.2359" y2="139.4383">
	<stop  offset="0" style="stop-color:#A6238F"/>
	<stop  offset="1" style="stop-color:#E962A6"/>
</linearGradient>
<path id="XMLID_78_" class="st9" d="M97.5,114l-7.2,12.4c-0.2,0.3-0.5,0.5-0.8,0.5H75.2c-0.3,0-0.6-0.2-0.8-0.5L67.2,114
	c-0.2-0.3-0.2-0.6,0-0.9l7.2-12.4c0.2-0.3,0.5-0.5,0.8-0.5h14.4c0.3,0,0.6,0.2,0.8,0.5l7.2,12.4C97.7,113.4,97.7,113.7,97.5,114z"/>
<linearGradient id="XMLID_22_" gradientUnits="userSpaceOnUse" x1="71.7797" y1="96.6761" x2="92.9509" y2="130.383">
	<stop  offset="0" style="stop-color:#E962A6"/>
	<stop  offset="1" style="stop-color:#A6238F"/>
</linearGradient>
<path id="XMLID_63_" class="st10" d="M102,112.6L93,96.9c-0.3-0.5-0.9-0.9-1.5-0.9H73.3c-0.6,0-1.2,0.3-1.5,0.9l-9.1,15.7
	c-0.3,0.5-0.3,1.2,0,1.8l9.1,15.7c0.3,0.5,0.9,0.9,1.5,0.9h18.2c0.6,0,1.2-0.3,1.5-0.9l9.1-15.7C102.4,113.9,102.4,113.2,102,112.6z
	 M101.3,114l-9.1,15.7c-0.2,0.3-0.5,0.5-0.8,0.5H73.3c-0.3,0-0.6-0.2-0.8-0.5L63.4,114c-0.2-0.3-0.2-0.6,0-0.9l9.1-15.7
	c0.2-0.3,0.5-0.5,0.8-0.5h18.2c0.3,0,0.6,0.2,0.8,0.5l9.1,15.7C101.5,113.4,101.5,113.7,101.3,114z"/>
<linearGradient id="XMLID_23_" gradientUnits="userSpaceOnUse" x1="71.7132" y1="96.5697" x2="92.7414" y2="130.0489">
	<stop  offset="0" style="stop-color:#A6238F"/>
	<stop  offset="1" style="stop-color:#E962A6"/>
</linearGradient>
<path id="XMLID_59_" class="st11" d="M101.3,113.1l-9.1-15.7c-0.2-0.3-0.5-0.5-0.8-0.5H73.3c-0.3,0-0.6,0.2-0.8,0.5l-9.1,15.7
	c-0.2,0.3-0.2,0.6,0,0.9l9.1,15.7c0.2,0.3,0.5,0.5,0.8,0.5h18.2c0.3,0,0.6-0.2,0.8-0.5l9.1-15.7
	C101.5,113.7,101.5,113.4,101.3,113.1z M97.5,114l-7.2,12.4c-0.2,0.3-0.5,0.5-0.8,0.5H75.2c-0.3,0-0.6-0.2-0.8-0.5L67.2,114
	c-0.2-0.3-0.2-0.6,0-0.9l7.2-12.4c0.2-0.3,0.5-0.5,0.8-0.5h14.4c0.3,0,0.6,0.2,0.8,0.5l7.2,12.4C97.7,113.4,97.7,113.7,97.5,114z"/>
<g>
	<g>
		<path class="st12" d="M75.5,32.4c0-1.8,1.5-3.3,3.3-3.3c1.8,0,3.3,1.5,3.3,3.3v3.5c0,1.8-1.5,3.3-3.3,3.3c-1.8,0-3.3-1.5-3.3-3.3
			V32.4z M77.6,35.9c0,0.7,0.5,1.2,1.2,1.2c0.7,0,1.2-0.5,1.2-1.2v-3.5c0-0.7-0.5-1.2-1.2-1.2c-0.7,0-1.2,0.5-1.2,1.2V35.9z"/>
		<path class="st12" d="M85.6,29h2.7v10.1h-2.7V29z"/>
	</g>
	<g>
		<path class="st12" d="M74.6,111.4c0-1.8,1.5-3.3,3.3-3.3c1.8,0,3.3,1.5,3.3,3.3v3.5c0,1.8-1.5,3.3-3.3,3.3c-1.8,0-3.3-1.5-3.3-3.3
			V111.4z M76.8,114.9c0,0.7,0.5,1.2,1.2,1.2c0.7,0,1.2-0.5,1.2-1.2v-3.5c0-0.7-0.5-1.2-1.2-1.2c-0.7,0-1.2,0.5-1.2,1.2V114.9z"/>
		<path class="st12" d="M85.9,115.7c0,0,0.3,0.4,0.9,0.4c0.6,0,1.1-0.6,1.1-1.1c0-0.6-0.4-1.2-1.1-1.2c-0.7,0-0.9,0.4-0.9,0.4
			l-1.5-1.5l1.6-2.3h-2.1v-2.1h6.2l-2.5,3.6c0,0,2.5,0.6,2.5,3.2c0,2-1.7,3.3-3.2,3.3s-2.4-0.9-2.4-1
			C84.4,117.2,85.9,115.7,85.9,115.7z"/>
	</g>
	<g>
		<path class="st12" d="M74.6,71.9c0-1.8,1.5-3.3,3.3-3.3c1.8,0,3.3,1.5,3.3,3.3v3.5c0,1.8-1.5,3.3-3.3,3.3c-1.8,0-3.3-1.5-3.3-3.3
			V71.9z M76.8,75.4c0,0.7,0.5,1.2,1.2,1.2c0.7,0,1.2-0.5,1.2-1.2v-3.5c0-0.7-0.5-1.2-1.2-1.2c-0.7,0-1.2,0.5-1.2,1.2V75.4z"/>
		<path class="st12" d="M87.4,72.9c0.3-0.3,0.4-0.6,0.4-1c0-0.5-0.5-1.2-1.2-1.2c-0.6,0-1.2,0.5-1.2,1.2h-2.2c0-1.7,1.4-3.3,3.4-3.3
			c2,0,3.3,1.7,3.3,3.4c0,1.1-0.6,1.9-0.6,1.9l-1.9,2.7h2.9v2.2h-7L87.4,72.9z"/>
	</g>
</g>
</svg>
