<?xml version="1.0" encoding="utf-8"?>
<!-- Generator: Adobe Illustrator 23.0.4, SVG Export Plug-In . SVG Version: 6.00 Build 0)  -->
<svg version="1.1" id="Layer_1" xmlns="http://www.w3.org/2000/svg" xmlns:xlink="http://www.w3.org/1999/xlink" x="0px" y="0px"
	 viewBox="0 0 257 150" style="enable-background:new 0 0 257 150;" xml:space="preserve">
<style type="text/css">
	.st0{fill:#00A0C6;}
	.st1{fill:#1E9CAE;}
	.st2{fill:#C4DFE0;}
	.st3{fill:#128593;}
	.st4{fill:#A9CECC;}
	.st5{fill:#168FA5;}
	.st6{fill:#40A629;}
	.st7{fill:#37972A;}
	.st8{fill:#BADEB0;}
	.st9{fill:#2D852D;}
	.st10{fill:#A3CB96;}
	.st11{fill:#2F8F2A;}
	.st12{fill:#F1A910;}
	.st13{fill:#E89A16;}
	.st14{fill:#F2DEB8;}
	.st15{fill:#CE7813;}
	.st16{fill:#E6CB9C;}
	.st17{fill:#DB8916;}
	.st18{opacity:0.2;enable-background:new    ;}
</style>
<g>
	<polygon class="st0" points="178,33.5 171.5,44.8 89.7,44.8 96.4,33.5 89.7,22.2 171.5,22.2 	"/>
	<polygon class="st1" points="96.4,33.5 80.9,33.5 80.9,22.2 89.7,22.2 	"/>
	<polygon class="st2" points="69.3,48.1 61,33.5 69.3,19 86.1,19 94.6,33.5 86.1,48.1 	"/>
	<polygon class="st3" points="96.4,33.5 89.7,44.8 80.9,44.8 80.9,33.5 	"/>
	<polygon class="st4" points="69.3,48.1 61,33.5 94.6,33.5 86.1,48.1 	"/>
	<polygon class="st0" points="65.7,48.1 57.5,33.5 65.7,19 82.5,19 91,33.5 82.5,48.1 	"/>
	<polygon class="st5" points="65.7,48.1 57.5,33.5 91,33.5 82.5,48.1 	"/>
	<polygon class="st2" points="62,48.1 53.8,33.5 62,19 78.8,19 87.3,33.5 78.8,48.1 	"/>
</g>
<g>
	<polygon class="st6" points="190.2,75.3 183.7,86.7 101.9,86.7 108.6,75.3 101.9,64 183.7,64 	"/>
	<polygon class="st7" points="108.6,75.3 93.1,75.3 93.1,64 101.9,64 	"/>
	<polygon class="st8" points="81.6,89.9 73.2,75.3 81.6,60.8 98.3,60.8 106.8,75.3 98.3,89.9 	"/>
	<polygon class="st9" points="108.6,75.3 101.9,86.7 93.1,86.7 93.1,75.3 	"/>
	<polygon class="st10" points="81.6,89.9 73.2,75.3 106.8,75.3 98.3,89.9 	"/>
	<polygon class="st6" points="77.9,89.9 69.6,75.3 77.9,60.8 94.7,60.8 103.2,75.3 94.7,89.9 	"/>
	<polygon class="st11" points="77.9,89.9 69.6,75.3 103.2,75.3 94.7,89.9 	"/>
	<polygon class="st8" points="74.2,89.9 66,75.3 74.2,60.8 91,60.8 99.5,75.3 91,89.9 	"/>
</g>
<g>
	<polygon class="st12" points="202.8,117.4 196.2,128.7 114.6,128.7 121,117.4 114.6,106.1 196.2,106.1 	"/>
	<polygon class="st13" points="121,117.4 105.7,117.4 105.7,106.1 114.6,106.1 	"/>
	<polygon class="st14" points="94.1,131.9 85.7,117.4 94.1,102.8 110.9,102.8 119.2,117.4 110.9,131.9 	"/>
	<polygon class="st15" points="121,117.4 114.6,128.7 105.7,128.7 105.7,117.4 	"/>
	<polygon class="st16" points="94.1,131.9 85.7,117.4 119.2,117.4 110.9,131.9 	"/>
	<polygon class="st12" points="90.5,131.9 82,117.4 90.5,102.8 107.3,102.8 115.6,117.4 107.3,131.9 	"/>
	<polygon class="st17" points="90.5,131.9 82,117.4 115.6,117.4 107.3,131.9 	"/>
	<polygon class="st14" points="86.9,131.9 78.4,117.4 86.9,102.8 103.6,102.8 111.9,117.4 103.6,131.9 	"/>
</g>
<rect x="98.3" y="28.1" class="st18" width="71.3" height="3.9"/>
<rect x="98.4" y="35.8" class="st18" width="71.3" height="3.9"/>
<rect x="110.8" y="69.5" class="st18" width="71.3" height="3.9"/>
<rect x="111" y="77.2" class="st18" width="71.3" height="3.9"/>
<rect x="123.8" y="111.9" class="st18" width="71.3" height="3.9"/>
<rect x="124.1" y="119.4" class="st18" width="71.3" height="3.9"/>
</svg>
