<?xml version="1.0" encoding="utf-8"?>
<!-- Generator: Adobe Illustrator 23.0.4, SVG Export Plug-In . SVG Version: 6.00 Build 0)  -->
<svg version="1.1" xmlns="http://www.w3.org/2000/svg" xmlns:xlink="http://www.w3.org/1999/xlink" x="0px" y="0px"
	 viewBox="0 0 670 450" style="enable-background:new 0 0 670 450;" xml:space="preserve">
<style type="text/css">
	.st0{fill:#1BCC49;}
	.st1{fill:#F9D606;}
	.st2{fill:#F1F2F2;}
	.st3{font-family:'ArialRoundedMTBold';}
	.st4{font-size:24.6986px;}
	.st5{fill:#BCBEC0;}
</style>
<g id="Layer_2">
	<rect x="165" y="86" class="st0" width="105" height="42"/>
	<rect x="164.2" y="145.5" class="st1" width="340.8" height="226.5"/>
	<rect x="171" y="92.8" class="st2" width="93" height="28.9"/>
	<text transform="matrix(1.105 0 0 1 176.9478 114.7627)" class="st0 st3 st4">x</text>
	<rect x="196.2" y="105.5" class="st5" width="62.8" height="5.9"/>
	<rect x="282" y="86" class="st0" width="105" height="42"/>
	<rect x="288" y="92.8" class="st2" width="93" height="28.9"/>
	<text transform="matrix(1.105 0 0 1 293.9478 114.7627)" class="st0 st3 st4">x</text>
	<rect x="313.2" y="105.5" class="st5" width="62.8" height="5.9"/>
	<rect x="399" y="86" class="st0" width="105" height="42"/>
	<rect x="405" y="92.8" class="st2" width="93" height="28.9"/>
	<text transform="matrix(1.105 0 0 1 410.9478 114.7627)" class="st0 st3 st4">x</text>
	<rect x="430.2" y="105.5" class="st5" width="62.8" height="5.9"/>
	<rect x="172.6" y="153.9" class="st2" width="324.4" height="208.1"/>
	<rect x="204.9" y="183.8" class="st5" width="277.1" height="13.8"/>
	<rect x="204.9" y="212.2" class="st5" width="277.1" height="13.8"/>
	<rect x="204.9" y="240.5" class="st5" width="277.1" height="13.8"/>
	<rect x="204.9" y="268.9" class="st5" width="277.1" height="13.8"/>
	<rect x="204.9" y="297.3" class="st5" width="277.1" height="13.8"/>
	<rect x="204.9" y="325.2" class="st5" width="207.1" height="13.8"/>
	
		<rect x="185.4" y="174" transform="matrix(0.5192 -0.8547 0.8547 0.5192 -58.5204 252.8185)" class="st1" width="20.1" height="8.9"/>
	<path class="st1" d="M186.3,184.7l0.4,8.3l7.3-3.7L186.3,184.7z M187.5,189.3l-0.1-2.9l4.6,2.8l-2.5,1.3L187.5,189.3z"/>
	<path class="st1" d="M204.7,164.1l-0.8-0.5c-1.9-1.1-4.4-0.5-5.5,1.3l-0.7,1.2l7.6,4.6l0.7-1.2
		C207.2,167.7,206.6,165.2,204.7,164.1z"/>
</g>
<g id="Layer_5">
</g>
<g id="Layer_7">
</g>
</svg>
